<svg xmlns="http://www.w3.org/2000/svg" width="613.007" height="534.822" viewBox="0 0 613.007 534.822">
  <g id="グループ_78" data-name="グループ 78" transform="translate(-348.56 -1523.35)">
    <g id="グループ_76" data-name="グループ 76" transform="translate(-191.451 -140.189)">
      <path id="パス_84" data-name="パス 84" d="M294.206,75.5A38.524,38.524,0,0,1,310.8,49.07c-3.245-.43-5.467-2.963-5.467-6.9V40.18a15.617,15.617,0,0,1,9.779-13.75,157.593,157.593,0,0,1,101.141,0,15.617,15.617,0,0,1,9.824,13.75v2.06c0,4.223-2.489,6.771-6.075,6.964a38.435,38.435,0,0,1,16.447,26.3,381.253,381.253,0,0,1-4.578,132.389,228.181,228.181,0,0,1-133.041,0A381.61,381.61,0,0,1,294.206,75.5Z" transform="translate(475.104 1647.094)" fill="#e60020" stroke="#231815" stroke-linecap="round" stroke-linejoin="round" stroke-width="2.83"/>
      <path id="パス_85" data-name="パス 85" d="M448.587,122.518a.593.593,0,0,0-.459,1.052c3.882,2.963,11.1,9.32,10.224,14.046-1.156,6.268-9.29,14.817-17.78,6.9s-17.247-15.928-20.388-18.7A130.388,130.388,0,0,0,397.72,109.85" transform="translate(526.752 1691.292)" fill="#e60020" stroke="#231815" stroke-linecap="round" stroke-linejoin="round" stroke-width="2.83"/>
      <ellipse id="楕円形_10" data-name="楕円形 10" cx="6.268" cy="3.334" rx="6.268" ry="3.334" transform="translate(969.33 1831.885) rotate(-42.01)" fill="#fff"/>
      <path id="パス_86" data-name="パス 86" d="M393.218,85.37s67.743,42.791,69.773,52.541c1.171,5.556-5.63,13.543-12.846,11.705a143.02,143.02,0,0,1-18.743-7.334.593.593,0,0,0-.7.919c3.141,3.749,8.786,11.528,6.9,15.943-2.5,5.927-12.328,12.431-18.8,2.845s-13.335-19.336-15.854-22.744a131.371,131.371,0,0,0-18.4-20.507" transform="translate(520.408 1679.5)" fill="#e60020" stroke="#231815" stroke-linecap="round" stroke-linejoin="round" stroke-width="2.83"/>
      <ellipse id="楕円形_11" data-name="楕円形 11" cx="6.268" cy="3.334" rx="6.268" ry="3.334" transform="matrix(0.675, -0.738, 0.738, 0.675, 968.121, 1823.252)" fill="#fff"/>
      <ellipse id="楕円形_12" data-name="楕円形 12" cx="6.268" cy="3.334" rx="6.268" ry="3.334" transform="translate(941.962 1838.117) rotate(-29.32)" fill="#fff"/>
      <path id="パス_87" data-name="パス 87" d="M313.257,119.339c.593-.1-48.259-52.645-48.259-52.645s-18.566-1.645-17.78-6.771c.859-6.979,7.749-20.744,24.848-16.121,41.028,11.513,45.607,32.6,45.592,32.686" transform="translate(454.244 1659.029)" fill="#e60020" stroke="#231815" stroke-linecap="round" stroke-linejoin="round" stroke-width="2.83"/>
      <ellipse id="楕円形_13" data-name="楕円形 13" cx="6.268" cy="3.334" rx="6.268" ry="3.334" transform="matrix(0.714, -0.7, 0.7, 0.714, 704.576, 1714.617)" fill="#fff"/>
      <path id="パス_88" data-name="パス 88" d="M312.079,112.116c.593,0-12.624-15.217-30.923-23.707-18.551-9.972-35.753-11.972-36.45-16.3-1.482-4.949,3.378-17.929,10.372-18.862,23.618-3.141,37.739,9.972,37.709,10.016" transform="translate(452.918 1663.793)" fill="#e60020" stroke="#231815" stroke-linecap="round" stroke-linejoin="round" stroke-width="2.83"/>
      <ellipse id="楕円形_14" data-name="楕円形 14" cx="6.268" cy="3.334" rx="6.268" ry="3.334" transform="translate(700.201 1730.79) rotate(-63.3)" fill="#fff"/>
      <path id="パス_89" data-name="パス 89" d="M322.849,116.6c.622,0-20.344-19.262-39.739-25.189-19.6-7.408-38.257-6.86-39.295-10.372-1.956-3.941,2.3-15.484,9.335-17.632,5.1-1.734,17.78-4.045,34.079,7.853" transform="translate(452.388 1668.24)" fill="#e60020" stroke="#231815" stroke-linecap="round" stroke-linejoin="round" stroke-width="2.83"/>
      <path id="パス_90" data-name="パス 90" d="M252.671,65.062c-1.482-.37-4.03,2.178-5.645,5.764s-1.748,6.742-.341,6.964,3.9-2.415,5.6-5.927S254.168,65.447,252.671,65.062Z" transform="translate(453.532 1669.7)" fill="#fff"/>
      <ellipse id="楕円形_15" data-name="楕円形 15" cx="20.057" cy="17.351" rx="20.057" ry="17.351" transform="translate(848.006 1736.044) rotate(-29.887)" fill="#004ea2"/>
      <ellipse id="楕円形_16" data-name="楕円形 16" cx="14.906" cy="14.046" rx="14.906" ry="14.046" transform="translate(853.707 1728.939)" fill="#fff"/>
      <path id="パス_91" data-name="パス 91" d="M356.5,73.824a19.545,19.545,0,0,1,4.223,2.756c2.03,1.7,4.119,2.119,5.23.4h0a5.438,5.438,0,0,0-1.171-6.638,19.352,19.352,0,0,0-4.223-2.756,5.438,5.438,0,0,0-6.534,1.63h0C352.9,70.935,354.187,72.668,356.5,73.824Z" transform="translate(505.505 1670.702)" fill="#231815"/>
      <ellipse id="楕円形_17" data-name="楕円形 17" cx="17.291" cy="19.988" rx="17.291" ry="19.988" transform="translate(783.024 1745.661) rotate(-60)" fill="#004ea2"/>
      <ellipse id="楕円形_18" data-name="楕円形 18" cx="14.906" cy="14.046" rx="14.906" ry="14.046" transform="translate(797.357 1728.939)" fill="#fff"/>
      <path id="パス_92" data-name="パス 92" d="M329.733,73.823a19.914,19.914,0,0,0-4.223,2.756c-2.03,1.7-4.119,2.119-5.23.4h0a5.453,5.453,0,0,1,1.171-6.638,19.351,19.351,0,0,1,4.223-2.756,5.467,5.467,0,0,1,6.549,1.63h0C333.349,70.934,332.119,72.668,329.733,73.823Z" transform="translate(489.139 1670.703)" fill="#231815"/>
      <path id="パス_93" data-name="パス 93" d="M339.71,90.262c-6.831-4.075-13.9,5.26-8.89,11.765a18.8,18.8,0,0,0,15.765,7.823c6.09,0,11.616-2.771,15.869-9.009,4.445-6.608-2.445-15.439-9.1-11.528l-1.23.785a11.009,11.009,0,0,1-12.15.3Z" transform="translate(493.713 1680.935)" fill="#004ea2"/>
      <path id="パス_94" data-name="パス 94" d="M338.307,94.261a3.334,3.334,0,0,0-3.408,5.408c2.593,2.963,5.764,5.438,9.172,5.438s6.579-2.43,9.187-5.438a3.334,3.334,0,0,0-3.408-5.408,15.334,15.334,0,0,0-5.823,3.763A15.024,15.024,0,0,0,338.307,94.261Z" transform="translate(496.093 1683.722)" fill="#e60039"/>
      <path id="パス_95" data-name="パス 95" d="M407.553,138.78c-.267.785-2.86,17.869-5.186,22.225s0,23.159,0,23.159-17.662,23.026-50.378,6.475c-.37-.193-.267-31.575-6.49-35.457" transform="translate(501.599 1705.227)" fill="#e60020" stroke="#231815" stroke-linecap="round" stroke-linejoin="round" stroke-width="2.83"/>
      <path id="パス_96" data-name="パス 96" d="M294,133.54c.267.77.726,16.3,3.067,20.744S299.216,179,299.216,179s17.662,23.026,50.378,6.475c.37-.178.267-31.56,6.49-35.442" transform="translate(476.791 1702.703)" fill="#e60020" stroke="#231815" stroke-linecap="round" stroke-linejoin="round" stroke-width="2.83"/>
      <path id="パス_97" data-name="パス 97" d="M329.71,122.356a9.483,9.483,0,0,1,16.462-6.431,9.5,9.5,0,0,1,16.476,6.431c0,3.275-4.193,7.868-4.193,7.868l-6.3,6.312a8.446,8.446,0,0,1-11.957,0l-6.3-6.312S329.71,125.631,329.71,122.356Z" transform="translate(493.992 1692.743)" fill="#fff"/>
      <ellipse id="楕円形_19" data-name="楕円形 19" cx="5.171" cy="16.047" rx="5.171" ry="16.047" transform="matrix(0.106, -0.994, 0.994, 0.106, 783.683, 1887.469)" fill="#fff"/>
    </g>
    <g id="グループ_75" data-name="グループ 75" transform="translate(0 154.811)">
      <path id="パス_98" data-name="パス 98" d="M142.01,133.26c-.415.9-5.6,21.173-9.068,26.2s-2.534,27.841-2.534,27.841-25.189,25.663-65.609,2c-.459-.282,3.052-38.005-4.549-43.4" transform="translate(364.194 1702.568)" fill="#e60020" stroke="#231815" stroke-linecap="round" stroke-linejoin="round" stroke-width="2.83"/>
      <path id="パス_99" data-name="パス 99" d="M208.173,75.5a38.2,38.2,0,0,0-8.52-19.143A14.491,14.491,0,0,1,196.9,44.032a9.292,9.292,0,0,0,.178-1.867V40.18a15.617,15.617,0,0,0-9.779-13.75,157.593,157.593,0,0,0-101.141,0,15.617,15.617,0,0,0-9.779,13.75v2.06a10.046,10.046,0,0,0,.163,1.822,16.121,16.121,0,0,1-2.756,13.232,38.154,38.154,0,0,0-7.809,18.284,379.614,379.614,0,0,0-2.445,84.457c.237,2.963-18.773.207-29.426,2.815S5.3,180.941,11.137,186.956c6.134,6.268,17.173-10.135,30.953-5.838,11.068,3.452,18.551,9.69,32.3,16.788s39.917,18.847,46.733,19.336a224.988,224.988,0,0,0,30.478.1,63.372,63.372,0,0,0,59.1-58.142,379.611,379.611,0,0,0-2.534-83.7Z" transform="translate(339.993 1647.094)" fill="#e60020" stroke="#231815" stroke-linecap="round" stroke-linejoin="round" stroke-width="2.83"/>
      <path id="パス_100" data-name="パス 100" d="M156.792,127.14c0,10.55,18.4,24.878,18.4,24.878s-2.43,33.99-46.318,42.806c-.489.1-23.707-31.116-32.6-30.078" transform="translate(381.55 1699.62)" fill="#e60020" stroke="#231815" stroke-linecap="round" stroke-linejoin="round" stroke-width="2.83"/>
      <ellipse id="楕円形_20" data-name="楕円形 20" cx="17.291" cy="19.988" rx="17.291" ry="19.988" transform="translate(491.181 1736.006) rotate(-60)" fill="#004ea2"/>
      <ellipse id="楕円形_21" data-name="楕円形 21" cx="14.906" cy="14.046" rx="14.906" ry="14.046" transform="translate(505.523 1719.278)" fill="#fff"/>
      <path id="パス_101" data-name="パス 101" d="M132.771,67.308a19.646,19.646,0,0,0-4.223,2.771c-2.015,1.7-4.119,2.119-5.23.4h0a5.482,5.482,0,0,1,1.171-6.638,19.454,19.454,0,0,1,4.238-2.756,5.453,5.453,0,0,1,6.534,1.63h0C136.386,64.4,135.156,66.152,132.771,67.308Z" transform="translate(394.267 1667.572)" fill="#231815"/>
      <path id="パス_102" data-name="パス 102" d="M150.506,103.312c-6.09,0-11.735-2.786-15.988-9.024-4.445-6.608,2.445-15.439,9.1-11.513a7.112,7.112,0,0,0,1.185.8,28.876,28.876,0,0,1,5.66,2.534Z" transform="translate(399.29 1677.783)" fill="#004ea2"/>
      <path id="パス_103" data-name="パス 103" d="M148.061,98.566c-3.408,0-6.579-2.43-9.172-5.438a3.334,3.334,0,0,1,3.408-5.408,15.336,15.336,0,0,1,5.823,3.764Z" transform="translate(401.676 1680.572)" fill="#e60039"/>
      <path id="パス_104" data-name="パス 104" d="M149.883,105.467a10.772,10.772,0,0,0-7.408-3.275,9.483,9.483,0,0,0-9.883,9.068c-.148,3.275,3.838,8.046,3.838,8.046l11.735,12.8S151.705,103.66,149.883,105.467Z" transform="translate(399.039 1687.599)" fill="#fff"/>
      <path id="パス_105" data-name="パス 105" d="M94.615,123.229c.578.089-27.974-65.7-27.974-65.7S49.675,49.781,52.076,45.217c3.141-6.3,11.528-15.469,26.107-5.453C113.047,64.287,113,84.216,112.973,84.29" transform="translate(360.146 1655.391)" fill="#e60020" stroke="#231815" stroke-linecap="round" stroke-linejoin="round" stroke-width="2.83"/>
      <ellipse id="楕円形_22" data-name="楕円形 22" cx="6.268" cy="3.334" rx="6.268" ry="3.334" transform="translate(416.64 1697.538) rotate(-24.98)" fill="#fff"/>
      <path id="パス_106" data-name="パス 106" d="M95.99,116.818c.563.178-6.845-18.566-21.247-32.7-14.18-15.587-29.738-23.2-28.923-27.545.282-5.186,9.172-15.78,16.091-14.328,23.322,4.9,32.271,21.929,32.227,22.018" transform="translate(357.229 1658.661)" fill="#e60020" stroke="#231815" stroke-linecap="round" stroke-linejoin="round" stroke-width="2.83"/>
      <ellipse id="楕円形_23" data-name="楕円形 23" cx="6.268" cy="3.334" rx="6.268" ry="3.334" transform="translate(406.532 1712.147) rotate(-45)" fill="#fff"/>
      <path id="パス_107" data-name="パス 107" d="M104.584,124.381c.593.207-12.772-24.937-29.056-37.042C59.5,73.84,41.73,68.077,41.908,64.506c-.519-4.445,7.408-13.839,14.684-13.513,5.379.015,18.062,2.089,29.471,18.729" transform="translate(355.348 1662.937)" fill="#e60020" stroke="#231815" stroke-linecap="round" stroke-linejoin="round" stroke-width="2.83"/>
      <path id="パス_108" data-name="パス 108" d="M54.881,53.207c-1.274-.859-4.445.7-7.245,3.541s-3.9,5.779-2.637,6.46,4.445-.993,7.231-3.66S56.156,54.066,54.881,53.207Z" transform="translate(356.599 1663.893)" fill="#fff"/>
    </g>
    <g id="グループ_77" data-name="グループ 77" transform="translate(-386.803 155.803)">
      <path id="パス_109" data-name="パス 109" d="M560.854,114.06c-.207.83-7.7,17.321-8,22.67s-13.543,20.033-13.543,20.033,3.749,31.6,45.325,38.909c.474.089,18.773-27.1,27.115-26.345" transform="translate(594.955 1693.32)" fill="#e60020" stroke="#231815" stroke-linecap="round" stroke-linejoin="round" stroke-width="2.83"/>
      <path id="パス_110" data-name="パス 110" d="M550.221,76.2a38.05,38.05,0,0,1,8.505-19.144A14.491,14.491,0,0,0,561.5,44.726a9.259,9.259,0,0,1-.193-1.867V40.8a15.617,15.617,0,0,1,9.779-13.75,157.637,157.637,0,0,1,101.155,0,15.617,15.617,0,0,1,9.779,13.75v2.045a9.055,9.055,0,0,1-.178,1.822A16.18,16.18,0,0,0,684.6,57.9a38.037,38.037,0,0,1,7.868,18.3,379.6,379.6,0,0,1,2.43,84.457c-.237,2.963,18.773.207,29.441,2.815s28.73,18.21,22.951,24.181c-6.134,6.268-17.173-10.135-30.953-5.838-11.083,3.452-17.469,9.957-32.316,16.788S644.1,217.447,637.33,217.862a222.574,222.574,0,0,1-30.478.089A63.357,63.357,0,0,1,547.687,159.9a379.618,379.618,0,0,1,2.534-83.7Z" transform="translate(598.402 1647.393)" fill="#e60020" stroke="#231815" stroke-linecap="round" stroke-linejoin="round" stroke-width="2.83"/>
      <path id="パス_111" data-name="パス 111" d="M572.54,135.71c.4.845,4.9,19.5,8.253,24.181s1.482,25.544,1.482,25.544,24.655,24.033,66.424,3.245c.459-.237-1.7-34.864,6.193-39.621" transform="translate(610.963 1703.748)" fill="#e60020" stroke="#231815" stroke-linecap="round" stroke-linejoin="round" stroke-width="2.83"/>
      <ellipse id="楕円形_24" data-name="楕円形 24" cx="19.988" cy="17.291" rx="19.988" ry="17.291" transform="translate(1153.648 1727.037) rotate(-30)" fill="#004ea2"/>
      <ellipse id="楕円形_25" data-name="楕円形 25" cx="14.906" cy="14.046" rx="14.906" ry="14.046" transform="translate(1161.41 1720.271)" fill="#fff"/>
      <path id="パス_112" data-name="パス 112" d="M564.168,67.973a19.913,19.913,0,0,1,4.223,2.756c2.03,1.7,4.119,2.119,5.23.4h0a5.438,5.438,0,0,0-1.17-6.638,19.354,19.354,0,0,0-4.178-2.756,5.467,5.467,0,0,0-6.549,1.63h0C560.568,65.084,561.783,66.8,564.168,67.973Z" transform="translate(605.539 1667.885)" fill="#231815"/>
      <path id="パス_113" data-name="パス 113" d="M547.88,103.987c6.09,0,11.72-2.771,15.973-9.009,4.445-6.608-2.43-15.439-9.1-11.513a8.884,8.884,0,0,1-1.215.77,28.494,28.494,0,0,0-5.66,2.534Z" transform="translate(599.084 1678.115)" fill="#004ea2"/>
      <path id="パス_114" data-name="パス 114" d="M547.924,99.227c3.408,0,6.579-2.43,9.186-5.438a3.334,3.334,0,0,0-3.408-5.408,15.217,15.217,0,0,0-5.823,3.764Z" transform="translate(599.084 1680.89)" fill="#e60039"/>
      <path id="パス_115" data-name="パス 115" d="M548.628,106.137a10.8,10.8,0,0,1,7.408-3.275,9.513,9.513,0,0,1,9.9,9.068c.133,3.275-3.852,8.046-3.852,8.046l-11.735,12.8S546.82,104.33,548.628,106.137Z" transform="translate(599.195 1687.922)" fill="#fff"/>
      <path id="パス_116" data-name="パス 116" d="M630.618,78.919s5.527,24.492,10.061,29.486,11.024,12.061,15.039,16.076c3.571,3.571,1.141,11.676-7.157,14.343a6.653,6.653,0,0,1-6.89-1.926c-5.453-5.927-10.624-11.854-10.624-11.854s6.831,20.966.459,28.612c-3.63,4.371-14.121,4-17.158-2.8a141.921,141.921,0,0,1-5.927-19.262.593.593,0,0,0-1.156,0c-.993,4.786-3.571,14.046-8.209,15.306-6.164,1.689-17.41-1.926-13.913-12.98s7.408-55.089,7.408-55.089" transform="translate(616.716 1676.35)" fill="#e60020" stroke="#231815" stroke-linecap="round" stroke-linejoin="round" stroke-width="2.83"/>
      <ellipse id="楕円形_26" data-name="楕円形 26" cx="3.334" cy="6.268" rx="3.334" ry="6.268" transform="translate(1234.219 1828.865) rotate(-85.93)" fill="#fff"/>
      <ellipse id="楕円形_27" data-name="楕円形 27" cx="6.268" cy="3.334" rx="6.268" ry="3.334" transform="translate(1259.031 1809.349) rotate(-40.93)" fill="#fff"/>
      <ellipse id="楕円形_28" data-name="楕円形 28" cx="3.334" cy="6.268" rx="3.334" ry="6.268" transform="matrix(0.379, -0.925, 0.925, 0.379, 1203.471, 1817.277)" fill="#fff"/>
    </g>
  </g>
</svg>
