<svg id="レイヤー_1" data-name="レイヤー 1" xmlns="http://www.w3.org/2000/svg" viewBox="0 0 259 130.26"><defs><style>.cls-1{fill:#c9caca;}.cls-2{fill:#0086d1;}.cls-3{fill:#7ecef4;}.cls-4{fill:#fff;}.cls-5{fill:#f18e38;}.cls-6{fill:#52251d;}.cls-7{fill:#579ed7;}.cls-8{fill:#081e34;}.cls-9{fill:#d84f29;}.cls-10{fill:#f3994f;}.cls-11{fill:#9194c9;}.cls-12{fill:#192448;}.cls-13{fill:#bf72ac;}.cls-14{fill:#441437;}.cls-15{fill:#ffe200;}.cls-16{fill:#f1b115;}</style></defs><path class="cls-1" d="M231.81,54.38A27.18,27.18,0,1,1,259,27.2,27.2,27.2,0,0,1,231.81,54.38Z"/><path class="cls-2" d="M231.81,27.17V0A27.18,27.18,0,1,1,211.4,45.12Z"/><circle class="cls-3" cx="231.81" cy="27.17" r="18.86"/><path class="cls-2" d="M225,21.67a1.87,1.87,0,0,0,.7.36,2.89,2.89,0,0,0,.76.1,2.09,2.09,0,0,0,.83-.17,2.24,2.24,0,0,0,.66-.48,2.12,2.12,0,0,0,.45-.68,2,2,0,0,0,.16-.81v-.57H227.2v.46a1,1,0,0,1-.08.45.77.77,0,0,1-.19.29.85.85,0,0,1-.28.15,1,1,0,0,1-.28,0,.7.7,0,0,1-.63-.27,1.29,1.29,0,0,1-.17-.68V15.15a1.64,1.64,0,0,1,.16-.78.68.68,0,0,1,.65-.3.71.71,0,0,1,.6.28,1.07,1.07,0,0,1,.22.68v.44h1.32V15a2.35,2.35,0,0,0-.16-.89,2.11,2.11,0,0,0-.45-.7,2,2,0,0,0-1.51-.61,2.3,2.3,0,0,0-.88.16,2.12,2.12,0,0,0-.68.45,1.91,1.91,0,0,0-.44.67,2.32,2.32,0,0,0-.15.84V20a2.27,2.27,0,0,0,.2,1A2,2,0,0,0,225,21.67Z"/><path class="cls-2" d="M230,21.5a2.12,2.12,0,0,0,.71.46,2.25,2.25,0,0,0,.9.17,2.62,2.62,0,0,0,1.07-.2,1.94,1.94,0,0,0,.72-.57,2.44,2.44,0,0,0,.37-.85,4.73,4.73,0,0,0,.12-1.09,8.12,8.12,0,0,0,0-.9,2.39,2.39,0,0,0-.2-.7,1.55,1.55,0,0,0-.43-.53,2.49,2.49,0,0,0-.71-.39l-1-.41a2.24,2.24,0,0,1-.41-.2.9.9,0,0,1-.23-.25.85.85,0,0,1-.09-.32,3.17,3.17,0,0,1,0-.46,2.28,2.28,0,0,1,0-.45.87.87,0,0,1,.41-.64.82.82,0,0,1,.44-.1.79.79,0,0,1,.72.33,1.43,1.43,0,0,1,.22.78v.3h1.32v-.65a2,2,0,0,0-.6-1.42,2.2,2.2,0,0,0-1.61-.66,2.2,2.2,0,0,0-1,.2,1.85,1.85,0,0,0-.69.54,2.13,2.13,0,0,0-.43.8,3.18,3.18,0,0,0-.14,1,3.12,3.12,0,0,0,.29,1.45,2.07,2.07,0,0,0,1.14.93l.95.39a3.88,3.88,0,0,1,.4.19.76.76,0,0,1,.24.23,1.16,1.16,0,0,1,.1.38,4.86,4.86,0,0,1,0,.6c0,.2,0,.39,0,.56a1.09,1.09,0,0,1-.13.43.61.61,0,0,1-.29.28,1.07,1.07,0,0,1-.52.1.84.84,0,0,1-.72-.29,1.05,1.05,0,0,1-.22-.66v-.41h-1.32v.49a2,2,0,0,0,.18.86A2.1,2.1,0,0,0,230,21.5Z"/><path class="cls-2" d="M235.25,21.5A2.07,2.07,0,0,0,236,22a2.17,2.17,0,0,0,.89.17,2.7,2.7,0,0,0,1.08-.2,1.91,1.91,0,0,0,.71-.57,2.27,2.27,0,0,0,.37-.85,4.73,4.73,0,0,0,.12-1.09,8.12,8.12,0,0,0,0-.9,2.39,2.39,0,0,0-.19-.7,1.82,1.82,0,0,0-.43-.53,2.42,2.42,0,0,0-.72-.39l-1-.41a2.24,2.24,0,0,1-.41-.2.8.8,0,0,1-.32-.57c0-.13,0-.28,0-.46a2.28,2.28,0,0,1,0-.45,1.15,1.15,0,0,1,.14-.38,1,1,0,0,1,.27-.26.86.86,0,0,1,.45-.1.81.81,0,0,1,.72.33,1.42,1.42,0,0,1,.21.78v.3h1.32v-.65a2,2,0,0,0-.59-1.42,2.34,2.34,0,0,0-.71-.48,2.19,2.19,0,0,0-.9-.18,2.25,2.25,0,0,0-1,.2,1.85,1.85,0,0,0-.69.54,2.28,2.28,0,0,0-.43.8,3.52,3.52,0,0,0-.14,1,3.25,3.25,0,0,0,.29,1.45,2.13,2.13,0,0,0,1.15.93l.94.39a3.08,3.08,0,0,1,.4.19.76.76,0,0,1,.24.23,1,1,0,0,1,.1.38,4.86,4.86,0,0,1,0,.6c0,.2,0,.39,0,.56a.94.94,0,0,1-.12.43.63.63,0,0,1-.3.28,1.07,1.07,0,0,1-.52.1.84.84,0,0,1-.72-.29,1.1,1.1,0,0,1-.21-.66v-.41H234.6v.49a2,2,0,0,0,.18.86A2.27,2.27,0,0,0,235.25,21.5Z"/><path class="cls-2" d="M238.17,40a.3.3,0,0,0,.26-.32c.2-2.39.4-4.77.61-7.16.05-.67.11-1.34.19-2,0-.28,0-.36-.32-.36h-6.84l0-.06.54-.25L239.25,27a.43.43,0,0,0,.3-.42c.07-.83.15-1.65.26-2.48,0-.3-.05-.37-.34-.37h-7.1l-.47,0h0c-.15,0-.29,0-.44,0h-7.32c-.28,0-.38.07-.33.37.11.78.21,1.57.29,2.36,0,.3.13.42.47.42,2.3,0,4.61,0,6.91,0h.29c.06,0,.13,0,.13.09a.13.13,0,0,1-.08.1,1.23,1.23,0,0,1-.26.12c-2.26.94-4.5,1.89-6.76,2.81a.47.47,0,0,0-.34.57c.09.88.15,1.75.23,2.63l6,0,4.75.05c.28,0,.33.1.31.34q-.12,1.74-.21,3.48c0,.15,0,.27-.21.33l-3.38.92h0a.39.39,0,0,1-.15,0l-3.22-.8c-.2,0-.2-.17-.21-.32-.05-.66-.11-1.32-.16-2,0-.17,0-.29-.26-.29-.93,0-1.85,0-2.78,0-.15,0-.21,0-.19.21.12,1.45.24,2.89.35,4.34a.45.45,0,0,0,.4.46l6.16,1.83,4.28-1.24Z"/><path class="cls-4" d="M231.63,38.71a.34.34,0,0,1-.14,0,.34.34,0,0,0,.14,0Z"/><path class="cls-1" d="M27.19,54.38A27.19,27.19,0,1,1,54.38,27.19,27.22,27.22,0,0,1,27.19,54.38Z"/><path class="cls-5" d="M27.19,27.19V0A27.33,27.33,0,0,1,54.38,27.19,27.19,27.19,0,0,1,0,27.19Z"/><circle class="cls-6" cx="27.19" cy="27.28" r="18.86"/><path class="cls-5" d="M15.27,35.35l5.53-17.1H25l5.53,17.1H26.34l-.94-3.7h-5l-.94,3.7Zm5.81-6.72h3.56L22.88,21.7h0Z"/><path class="cls-5" d="M33.19,19.75h0a2,2,0,0,1,2-1.95h.07a2,2,0,0,1,2,1.95h0a2,2,0,0,1-2,1.95h-.07A2,2,0,0,1,33.19,19.75Zm0,15.6V23.19h4V35.35Z"/><path class="cls-1" d="M96.21,54.38A27.19,27.19,0,1,1,123.4,27.19,27.22,27.22,0,0,1,96.21,54.38Z"/><path class="cls-7" d="M96.21,27.19,96.23,0a27.19,27.19,0,1,1-10,52.5Z"/><circle class="cls-8" cx="96.21" cy="27.19" r="18.86"/><path class="cls-7" d="M87.66,30v5.88h-4V18.31h4.81c2.82,0,4.89.45,6.19,1.36a4.66,4.66,0,0,1,2,4.12q0,6.16-7,6.16Zm0-3h1.5a4.29,4.29,0,0,0,2.71-.73A2.67,2.67,0,0,0,92.79,24a2.29,2.29,0,0,0-.85-2,4.77,4.77,0,0,0-2.78-.63h-1.5Z"/><path class="cls-7" d="M108.35,26.49a13.65,13.65,0,0,0-4.17-.66,3.05,3.05,0,0,0-1.39.23.8.8,0,0,0-.39.73c0,.61.48,1,1.45,1.2a7.81,7.81,0,0,1,3.82,1.45,3.6,3.6,0,0,1,1.1,2.83,3.26,3.26,0,0,1-1.35,2.8,6.48,6.48,0,0,1-3.92,1,16.88,16.88,0,0,1-4.88-.7V32.44a12,12,0,0,0,4.41.82c1.19,0,1.78-.35,1.78-1a.9.9,0,0,0-.33-.74,3.05,3.05,0,0,0-1.22-.46,7.46,7.46,0,0,1-3.71-1.48,3.43,3.43,0,0,1-1.11-2.67,3.25,3.25,0,0,1,1.33-2.77,6.69,6.69,0,0,1,4-1,19.83,19.83,0,0,1,4.55.54Z"/><path class="cls-1" d="M164,54.38a27.19,27.19,0,1,1,27.19-27.19A27.22,27.22,0,0,1,164,54.38Z"/><path class="cls-9" d="M164,27.19V0a27.33,27.33,0,0,1,27.18,27.19,27.19,27.19,0,0,1-47,18.62Z"/><circle class="cls-10" cx="164.02" cy="27.16" r="18.86"/><path class="cls-9" d="M154.19,22.52V13.29h1.32v3.95h1.64V13.29h1.32v9.23h-1.32V18.41h-1.64v4.11Z"/><path class="cls-9" d="M160.58,22.52v-8h-1.53V13.29h4.39v1.24h-1.53v8Z"/><path class="cls-9" d="M164,22.52V13.29h1.27l1.7,4.88h0l1.69-4.88H170v9.23h-1.32V16.9h0l-1.31,4h-.66l-1.29-4h0v5.62Z"/><path class="cls-9" d="M171.23,22.52V13.29h1.32v7.9h2.62v1.33Z"/><path class="cls-9" d="M171.75,24.62H157.06c-.18,0-.19.08-.18.22,0,.37.08.74.11,1.1.23,2.56.46,5.11.68,7.67,0,.16.07.2.22.2H168c.15,0,.24,0,.22.21-.12,1.15-.22,2.31-.31,3.47a.31.31,0,0,1-.27.32l-3.13.86c-1-.29-2.08-.58-3.13-.85a.32.32,0,0,1-.29-.35c-.05-.63-.11-1.26-.16-1.89,0-.19-.08-.26-.28-.25h-2.51c-.25,0-.28.08-.26.3.13,1.42.26,2.84.38,4.27,0,.17.09.21.24.25,1.22.34,2.43.69,3.65,1,.79.21,1.56.47,2.36.62a.27.27,0,0,0,.09,0l6-1.65a.22.22,0,0,0,.19-.23c0-.31.05-.62.08-.92.23-2.64.46-5.28.71-7.91,0-.3-.07-.32-.31-.31h-6.44l-.27,0c-1.24,0-2.48,0-3.71,0-.25,0-.33-.07-.35-.32-.06-.83-.12-1.65-.22-2.48,0-.26,0-.32.29-.32h11.23l.06-.05c.13-.89.16-1.79.26-2.68C172.09,24.67,172,24.62,171.75,24.62Z"/><path class="cls-9" d="M171.73,27.67l.06-.05C171.79,27.67,171.77,27.68,171.73,27.67Z"/><path class="cls-11" d="M27.21,27.12a.12.12,0,0,1,0,.14C27.14,27.21,27.14,27.16,27.21,27.12Z"/><path class="cls-11" d="M27.2,27.16s0,0,0,.06S27.16,27.17,27.2,27.16Z"/><path class="cls-11" d="M27.19,27.18h0Z"/><path class="cls-11" d="M27.19,27.18h0Z"/><path class="cls-11" d="M27.19,27.18h0v0Z"/><path class="cls-1" d="M27.19,130.26a27.19,27.19,0,1,1,27.19-27.19A27.22,27.22,0,0,1,27.19,130.26Z"/><path class="cls-11" d="M27.19,103.07V75.88A27.17,27.17,0,0,1,50.12,88.46Z"/><circle class="cls-12" cx="27.19" cy="103.07" r="18.86"/><path class="cls-11" d="M26.33,110.06H24.86c-.28,0-.29,0-.38-.27-.38-1.1-.77-2.21-1.14-3.31-.05-.12-.09-.17-.23-.17H17.86a.2.2,0,0,0-.23.17c-.34,1.1-.7,2.2-1.06,3.3-.07.24-.13.28-.38.28H13.53c-.3,0-.36-.08-.26-.36q1.08-3.09,2.14-6.16,1.36-3.9,2.71-7.8a4.22,4.22,0,0,0,.21-1.27c0-.25,0-.27.28-.27H22.3c.17,0,.24,0,.3.21l5.07,14.29c.13.36.26.72.38,1.08s0,.28-.2.28Zm-5.88-13c0,.11-.05.22-.08.33-.5,1.93-1.13,3.82-1.75,5.71,0,.14,0,.17.12.17h3.49a.19.19,0,0,0,.14,0C21.75,101.18,21,99.14,20.45,97.06Z"/><path class="cls-11" d="M32.58,104.92a2.64,2.64,0,0,0,2.36,2.42,7.4,7.4,0,0,0,4-.44c.14-.06.18,0,.18.11v2.3a.34.34,0,0,1-.21.33,7.08,7.08,0,0,1-2.16.59,12.08,12.08,0,0,1-1.9.08,6,6,0,0,1-3.52-1.16,5.35,5.35,0,0,1-2-3.09,7.39,7.39,0,0,1,.47-5.07,5.28,5.28,0,0,1,3.85-3.1,5.82,5.82,0,0,1,3.74.39,4.64,4.64,0,0,1,2.39,2.91,6.22,6.22,0,0,1,.27,2.5c0,.3,0,.6-.07.91a.24.24,0,0,1-.25.24c-.48,0-1,.08-1.45.08H32.58Zm2.15-2.35c.6,0,1.33,0,2.06,0,.12,0,.17,0,.16-.17a2.18,2.18,0,0,0-.26-.89,2.13,2.13,0,0,0-2.75-.86,2.27,2.27,0,0,0-1.33,1.76c0,.15,0,.2.14.19Z"/><path class="cls-13" d="M139.75,27.23s0-.06,0-.09S139.8,27.21,139.75,27.23Z"/><path class="cls-1" d="M96.21,130.26a27.19,27.19,0,1,1,27.19-27.19A27.22,27.22,0,0,1,96.21,130.26Z"/><path class="cls-13" d="M96.21,103.07l0-27.19A27.19,27.19,0,1,1,81.52,126Z"/><circle class="cls-14" cx="96.21" cy="103.07" r="18.86"/><path class="cls-13" d="M76.29,90.92a.1.1,0,0,1,0,.13S76.23,91,76.29,90.92Z"/><path class="cls-13" d="M76.33,90.59s0,.07,0,.09S76.27,90.61,76.33,90.59Z"/><path class="cls-13" d="M76.36,90.39s0,0,0,0S76.33,90.41,76.36,90.39Z"/><path class="cls-13" d="M108.18,102q0,3.48,0,7c0,.39,0,.78.07,1.17,0,.24,0,.28-.25.38a11.61,11.61,0,0,1-3,.76,12.54,12.54,0,0,1-1.73.09,6.39,6.39,0,0,1-3.77-1.19,5,5,0,0,1-1.9-3.08,7.29,7.29,0,0,1-.14-2.13,5.74,5.74,0,0,1,2-4,6.29,6.29,0,0,1,3.22-1.46,7.61,7.61,0,0,1,2-.08c.15,0,.19,0,.19-.17,0-1.42,0-2.85,0-4.27,0-.25,0-.26.27-.26h2.72c.22,0,.24,0,.24.24V102ZM105,105.37c0-1,0-2,0-3,0-.12,0-.18-.17-.21a3.82,3.82,0,0,0-1.68.08,3,3,0,0,0-2.12,1.91,4,4,0,0,0-.09,2.17,2.66,2.66,0,0,0,1.19,1.85,3.86,3.86,0,0,0,2.77.37c.12,0,.09-.1.09-.17Z"/><path class="cls-13" d="M90.32,105.47l-.65,1.27c-.76,1.41-1.5,2.83-2.29,4.23a.31.31,0,0,1-.3.2H83.92c-.16,0-.21-.12-.11-.29s.39-.64.59-1q1.89-3.12,3.8-6.24a.21.21,0,0,0,0-.25q-2-3.37-4-6.76c-.09-.15-.19-.3-.28-.46s0-.23.12-.23h3.34a.32.32,0,0,1,.3.2c.72,1.61,1.67,3.1,2.49,4.65.14.26.27.52.42.82l.19-.39c.75-1.51,1.57-3,2.35-4.46.12-.21.23-.43.34-.65a.28.28,0,0,1,.29-.17h3c.07,0,.15,0,.19.06s0,.15,0,.22l-2.3,3.79c-.63,1-1.27,2.1-1.91,3.15a.21.21,0,0,0,0,.25l4.44,7.27c.06.11.18.21.11.35s-.24.1-.37.1h-3a.64.64,0,0,1-.64-.37c-.86-1.75-1.82-3.45-2.76-5.17A.36.36,0,0,0,90.32,105.47Z"/><path class="cls-1" d="M231.81,130.26A27.19,27.19,0,1,1,259,103.07,27.22,27.22,0,0,1,231.81,130.26Z"/><path class="cls-15" d="M231.81,103.07V75.88a27.18,27.18,0,0,1,24.36,39.23Z"/><circle class="cls-16" cx="231.81" cy="103.04" r="18.86"/><path class="cls-9" d="M239.52,103.55l.06,0S239.56,103.56,239.52,103.55Z"/><path class="cls-15" d="M238.73,106.68s0,0,0,0c0-.17-.1-.2-.3-.19h-10c-.15,0-.24,0-.22-.2.12-1.16.22-2.32.31-3.48a.31.31,0,0,1,.27-.32c1.05-.27,2.09-.57,3.13-.85,1,.28,2.08.58,3.13.84a.33.33,0,0,1,.29.35c0,.63.11,1.26.16,1.9,0,.19.08.25.28.25.83,0,1.67,0,2.51,0,.25,0,.28-.08.26-.3-.13-1.42-.26-2.85-.38-4.27,0-.17-.09-.22-.24-.26l-3.65-1c-.79-.21-1.56-.47-2.36-.63h-.09l-6,1.65a.23.23,0,0,0-.19.24c0,.31-.05.61-.08.92-.23,2.63-.46,5.27-.71,7.91v.09h0v0c0,.17.11.19.31.19h10c.15,0,.24,0,.22.21-.12,1.15-.22,2.31-.31,3.47a.31.31,0,0,1-.28.32l-3.12.86c-1-.29-2.08-.58-3.13-.85a.32.32,0,0,1-.29-.35c-.05-.63-.11-1.26-.16-1.89,0-.19-.08-.26-.28-.25-.84,0-1.67,0-2.51,0-.25,0-.28.08-.26.3.13,1.42.26,2.84.37,4.27,0,.17.1.21.25.25,1.21.34,2.43.69,3.65,1,.79.21,1.56.47,2.36.62a.27.27,0,0,0,.09,0l6-1.65c.14,0,.17-.12.18-.23l.09-.92c.23-2.64.46-5.28.71-7.91v-.1Z"/><path class="cls-15" d="M230.51,88.66v7a2.23,2.23,0,0,1-.59,1.57,2.29,2.29,0,0,1-.7.48,2.33,2.33,0,0,1-.95.18,1.91,1.91,0,0,1-1.05-.27,3.55,3.55,0,0,1-.66-.55l1-.82a1.4,1.4,0,0,0,.33.24.86.86,0,0,0,.39.09.93.93,0,0,0,.27,0,.7.7,0,0,0,.29-.18.71.71,0,0,0,.24-.33,1.4,1.4,0,0,0,.09-.55V88.66Z"/><path class="cls-15" d="M236,91.29h-1.31V91a1.42,1.42,0,0,0-.21-.78.8.8,0,0,0-.72-.33.77.77,0,0,0-.71.36,1.42,1.42,0,0,0-.14.38,3.14,3.14,0,0,0,0,.45c0,.18,0,.33,0,.45a1.09,1.09,0,0,0,.1.32.75.75,0,0,0,.23.24,1.81,1.81,0,0,0,.4.21l1,.4a2.36,2.36,0,0,1,.71.39,1.78,1.78,0,0,1,.43.52,2.87,2.87,0,0,1,.19.7,7.85,7.85,0,0,1,.05.9,4.55,4.55,0,0,1-.12,1.07,2.15,2.15,0,0,1-.37.84,1.91,1.91,0,0,1-.71.57,2.42,2.42,0,0,1-1.06.2,2.35,2.35,0,0,1-.89-.16,2,2,0,0,1-.71-.47,2.18,2.18,0,0,1-.47-.68,2.06,2.06,0,0,1-.17-.86v-.49h1.31v.41a1.07,1.07,0,0,0,.21.65.81.81,0,0,0,.72.29,1.25,1.25,0,0,0,.52-.09.78.78,0,0,0,.29-.28,1.09,1.09,0,0,0,.12-.43c0-.17,0-.36,0-.56a4.68,4.68,0,0,0,0-.59,1.16,1.16,0,0,0-.1-.38.76.76,0,0,0-.24-.23,3.6,3.6,0,0,0-.39-.19l-.94-.39a2,2,0,0,1-1.14-.92,3.19,3.19,0,0,1-.29-1.43,3.52,3.52,0,0,1,.14-1,2.37,2.37,0,0,1,.43-.8,1.93,1.93,0,0,1,.69-.53,2.3,2.3,0,0,1,1-.2,2.19,2.19,0,0,1,.9.18,2.29,2.29,0,0,1,.7.48,2,2,0,0,1,.59,1.41Z"/><path class="cls-1" d="M164,130.26a27.19,27.19,0,1,1,27.19-27.19A27.22,27.22,0,0,1,164,130.26Z"/><path class="cls-11" d="M164,103.07V75.88a27.17,27.17,0,0,1,25.64,18.18Z"/><circle class="cls-12" cx="164.01" cy="103.07" r="18.86"/><path class="cls-11" d="M153.58,103.07V94.84c0-.39,0-.39.41-.4l4.63-.09a9.6,9.6,0,0,1,3.68.55,5.26,5.26,0,0,1,3.51,4,6.31,6.31,0,0,1-.39,4,5.29,5.29,0,0,1-3.36,2.86,11.33,11.33,0,0,1-4.29.44c-.65,0-.64-.06-.64.58,0,1.52,0,3,0,4.56,0,.33,0,.37-.36.37h-2.82c-.34,0-.36,0-.36-.36Zm3.56-2.65c0,.84,0,1.69,0,2.53,0,.14,0,.23.19.23a9.47,9.47,0,0,0,3-.23,2.48,2.48,0,0,0,2-1.89,2.61,2.61,0,0,0-2.07-3.33,14.47,14.47,0,0,0-2.94-.11c-.18,0-.18.1-.18.23C157.15,98.71,157.14,99.56,157.14,100.42Z"/><path class="cls-11" d="M171.78,100.35a7.39,7.39,0,0,1,.92-.86,5.55,5.55,0,0,1,3.2-1.17c.25,0,.33.09.33.34q0,1.49,0,3c0,.26-.09.33-.33.32a6.89,6.89,0,0,0-3.25.71l-.14.07a.94.94,0,0,0-.54,1c0,2.57,0,5.14,0,7.71,0,.39,0,.39-.39.39-1,0-2,0-2.92,0-.35,0-.39,0-.39-.38v-8c0-1.44,0-2.88-.08-4.32,0-.64,0-.52.51-.53H171c.36,0,.5.11.56.47a6.35,6.35,0,0,1,.15,1.15A.41.41,0,0,0,171.78,100.35Z"/></svg>