<svg xmlns="http://www.w3.org/2000/svg" width="490" height="720" viewBox="0 0 490 720">
  <g id="mainlogo_アートボード_1" data-name="mainlogo_アートボード 1" transform="translate(-16.789 -22.437)">
    <path id="パス_148" data-name="パス 148" d="M93.7,254.712a41.14,41.14,0,0,1-10.859-59.3c2.468-3.261,5.528-5.633,4.146-9.883C81.259,164.68,88.762,146,98.633,128.806a172.205,172.205,0,0,1,91.609-75.5c23.4-9.29,48.371-7.906,72.951-7.412,19.743,0,40.572,1.384,57.65,14.33,3.751-.988,2.665-4.151,3.356-6.325a44.629,44.629,0,0,1,39.487-30.637,39.471,39.471,0,0,1,42.645,19.766c9.872,17.2,10.76,42.5-12.734,52.379-3.85,1.581-11.451,2.471-9.872,7.511,1.777,6.72,9.872,5.732,15.1,4.744a282.644,282.644,0,0,0,28.43-6.72c2.764-.692,5.627-3.064,7.7,0s0,6.819-2.567,9.883a67.286,67.286,0,0,1-38.4,16.5,36.615,36.615,0,0,0,24.876,14.231,111.91,111.91,0,0,0,14.116,0c2.764,0,5.429.791,5.627,3.854s-2.567,4.546-5.726,4.843a52.368,52.368,0,0,1-30.4-5.831c-3.455-1.977-6.811-4.052-9.872-6.127a24.064,24.064,0,0,1-2.567-.593v2.767c4.541,15.911-1.876,29.648-8.49,43.385-1.777,3.755-2.962,5.732,1.086,10.377a60.519,60.519,0,0,1,12.636,30.538,221.117,221.117,0,0,1,3.06,32.415,25.3,25.3,0,0,1-14.215,24.608c-3.455,1.878-7.206,3.36-10.661,5.238-5.824,3.261-15.1,2.075-17.769,7.708a45.315,45.315,0,0,0,0,20.359,185.506,185.506,0,0,1-2.172,31.427c-.888,8.993,3.554,12.353,11.55,12.946a229.813,229.813,0,0,1,86.574,25.3,65.577,65.577,0,0,1,29.615,27.375,137.4,137.4,0,0,1,16.091,70.464,483.123,483.123,0,0,1-5.528,72.54,6.821,6.821,0,0,0,4.047,8.5c14.413,8.5,14.709,21.643,0,30.241-5.627,3.36-4.936,5.04-2.27,9.883,6.219,10.673,11.451,20.853,1.481,33.7-3.159,4.151-2.665,14.923-4.344,22.039-4.047,16.405-.79,33.7-8,49.414a51.434,51.434,0,0,1-45.113,31.724,140.615,140.615,0,0,1-61.105-3.657c-47.483-16.8-96.841-28.956-141.362-53.367a66.43,66.43,0,0,1-15.6-9.883,15.092,15.092,0,0,0-22.507-.593c-16.091,11.662-32.478,22.829-48.766,34.392a103.275,103.275,0,0,1-57.157,17.493c-7.9,0-15.992-.889-23.889,0-25.568,3.657-53.109-25.6-50.247-49.414a109.916,109.916,0,0,1,2.468-24.707,49.468,49.468,0,0,0,.79-17.789,903.484,903.484,0,0,1,9.872-146.067c4.541-29.649,27.641-67.8,74.334-91.91-8.391-13.441-16.979-26.881-25.074-40.519a41.878,41.878,0,0,0-9.872-9.883,13.746,13.746,0,0,1-2.073-22.335,15.528,15.528,0,0,0,2.962-8.993,43.413,43.413,0,0,1,10.365-26.683,7.912,7.912,0,0,0,2.073-7.017A22.344,22.344,0,0,1,93.5,256.491c7.305.988,8.193,3.953,2.567,8.6A11.472,11.472,0,0,0,93.2,281.4c2.27,3.755,1.382,5.534-2.073,7.709A30.253,30.253,0,0,0,78.4,315.1c0,4.843,1.283,9.883-4.837,13.243-4.442,2.372-2.863,6.918,0,8.993,12.537,8.2,17.374,21.94,24.383,33.9a57.958,57.958,0,0,0,39.388,31.032,72.577,72.577,0,0,0,39.487-2.075c8-2.767,9.872.593,10.464,7.116s0,15.22,0,22.829c1.185,30.34,10.958,47.141,34.057,53.664a94.074,94.074,0,0,0,49.358.988,157.872,157.872,0,0,0,56.17-27.277c13.228-9.883,24.876-22.632,24.778-40.124,0-19.766,4.146-40.124-4.64-60.581A359.866,359.866,0,0,1,332.1,296.418c-5.232-22.236,0-30.538,21.224-37.06a21.142,21.142,0,0,0,15.893-18.58,15.321,15.321,0,0,0-9.181-15.812c-3.06-1.384-7.108-1.68-4.442-6.226s5.726-2.965,9.872-.988a26.7,26.7,0,0,1,5.627,39.531,28.914,28.914,0,0,1-21.422,11.069c-7.9,0-10.661,6.424-9.872,12.749s7.5,4.25,11.254,3.854A79.8,79.8,0,0,0,383.134,272.8a13.837,13.837,0,0,0,7.305-11.464,113.369,113.369,0,0,0-10.563-58.012,7.8,7.8,0,0,0-5.035-4.941c-16.486-4.447-25.962,2.075-28.036,19.173A79.087,79.087,0,0,1,317.192,272.4c-3.258,2.57-6.417,7.61-11.056,4.546s-.888-7.412,0-11.168c2.468-17.492,7.9-34.688,3.85-52.576-.691-3.064,0-5.04-4.936-4.941-20.237.593-40.178,4.25-60.316,6.029-6.417.593-9.082,3.459-9.279,10.871a24.8,24.8,0,0,1-19.743,25.2,28.32,28.32,0,0,1-32.182-14.132c-6.219-12.353-18.657-17.789-36.624-16.01-12.438,1.186-15.3,9.883-16.091,20.359a31.051,31.051,0,0,1-4.738,11.958c-1.382,2.471-3.949,5.337-7.009,4.052C110.183,253.032,101.693,256.491,93.7,254.712Zm324.876,478.92a82.337,82.337,0,0,0,26.654-1.779,44.747,44.747,0,0,0,33.366-34.787c3.06-19.766-3.06-38.74-18.756-46.746a348.424,348.424,0,0,0-98.716-37.456c-38.6-6.918-75.716-22.039-113.524-33.5a119.233,119.233,0,0,0-19.743-5.831,218.556,218.556,0,0,1-44.422-8.895,4.836,4.836,0,0,0-6.811,2.866,29.61,29.61,0,0,1-22.606,13.935c-2.271,0-4.64,0-5.923,3.064a31.048,31.048,0,0,0,13.623,35.479,99.9,99.9,0,0,1,19.743,13.836A315.123,315.123,0,0,0,239.8,677c29.615,17.69,63.277,25.992,95.459,37.456C362.5,724.342,389.847,736.7,418.573,733.632ZM200.015,662.278c-21.816-25-50.444-38.246-77.69-53.861A31.953,31.953,0,0,0,89.946,609.5a207.2,207.2,0,0,1-33.958,15.911c-21.619,5.93-28.529,20.853-31.491,40.322-3.159,21.248,11.451,47.833,30.109,50.5a126.828,126.828,0,0,0,91.609-16.208C164.675,687.677,180.765,672.359,200.015,662.278ZM93.2,166.36c19.743-16.5,26.653-17.295,40.869-5.436,3.06,2.471,7.4,4.941,3.653,9.389a6.807,6.807,0,0,1-10.464.494c-8.193-6.72-16.486-8.993-24.778,0a6.511,6.511,0,0,1-4.837,1.581c-6.12-1.087-3.554,3.558-3.751,5.831s.888,4.843,5.035,4.843c24.877,0,31,4.843,35.044,27.573a75.239,75.239,0,0,1,34.156,0c7.108,1.779,9.872,1.384,10.661-7.116a24.1,24.1,0,0,1,22.8-24.707,23.789,23.789,0,0,1,28.726,17.2,8.589,8.589,0,0,0,9.872,6.621c21.224-.889,42.152-5.93,63.08-4.348a4.55,4.55,0,0,0-.79-5.732,152.264,152.264,0,0,0-18.559-22.533c-9.872-8.1-8.786-14.33-1.086-23.027a23.532,23.532,0,0,0-9.872-38.444c-4.343-1.68-8.884-3.064-13.327-4.645a41.136,41.136,0,0,0-51.333,13.045,93.427,93.427,0,0,1-23.791,22.039,42.8,42.8,0,0,1-40.572,1.186c-10.464-5.04-9.872-16.208-8.786-26.091a24.432,24.432,0,0,1,2.665-9.29c1.283-2.668,1.678-4.25-1.086-6.226a4.341,4.341,0,0,0-6.515.889C113.638,118.824,97.844,138.59,93.2,166.36Zm146,401.241c13.031,2.965,24.087,10.871,37.315,13.144a250.123,250.123,0,0,1,65.054,19.271,62.926,62.926,0,0,0,20.829,5.337,154.06,154.06,0,0,1,61.2,17.492,37.682,37.682,0,0,0,17.868,6.622c.888-3.36-3.751-6.621,0-9.092s6.318.692,8.786,2.372c11.451,7.807,22.8,15.813,34.551,24.015a12.857,12.857,0,0,0-3.751-14.725A127.047,127.047,0,0,0,439.5,603.08c-2.863-1.186-8.885-.791-7.4-5.831s6.713-2.767,9.872-1.779a43.7,43.7,0,0,1,6.91,3.162,129.223,129.223,0,0,1,35.933,25.893c1.678,1.581,3.06,4.843,6.022,3.162s2.073-4.941,1.086-7.709-1.678-4.052-2.468-6.029c-7.009-17.789-22.507-25.893-38.8-32.02a371.3,371.3,0,0,0-40.276-10.377c-3.554-.889-8.292-1.186-7.108-5.93s5.726-2.965,9.279-2.075c8.687,2.075,17.374,4.348,26.16,6.127a144.54,144.54,0,0,1,40.276,17.888,12.625,12.625,0,0,0,15.795-2.174c2.468-2.372,4.64-5.139,2.961-8.6-2.567-5.633-7.8-5.534-13.031-5.633a125.662,125.662,0,0,1-58.341-17.69,163.483,163.483,0,0,0-37.414-16.9c-20.928-5.436-40.967.89-61.5,3.953-27.739,4.052-52.912,16.01-79.763,22.632C244.931,563.352,240.982,563.352,239.205,567.6ZM77.212,607.132a23.7,23.7,0,0,1-3.455-2.668c-2.172-2.767-6.022-5.633-2.468-9.191s5.923.988,8.391,3.261a9.863,9.863,0,0,0,10.958,1.68,46.549,46.549,0,0,1,13.623-2.866c4.64,0,5.528-1.186,5.035-6.127a85.575,85.575,0,0,1,5.528-43.287c-33.366,0-54.985,28.166-47.976,63.744ZM190.44,195.119a38.581,38.581,0,0,0-.691,37.159,20.914,20.914,0,0,0,32.28,4.744c8.292-9.883,5.035-39.531-5.429-47.339-1.876-1.384-4.442-4.348-6.515,0C203.766,203.519,201.792,204.014,190.44,195.119Zm-82.724-5.93c4.344,8.8,4.837,15.714-2.369,19.766s-12.043-2.866-16.881-7.412a39.567,39.567,0,0,0-5.627,23.225A19.759,19.759,0,0,0,101.5,246.806a20.838,20.838,0,0,0,22.211-19.766,143.949,143.949,0,0,0,.592-18.481A19.759,19.759,0,0,0,107.715,189.189ZM375.632,524.117c13.919,4.941,26.653,8.4,38.5-3.756a24.035,24.035,0,0,0,4.936-24.015,9.082,9.082,0,0,0-9.181-6.325c-3.258,0-7.206-.791-8.391,3.064C397.448,507.02,385.9,514.827,375.632,524.117ZM162.6,558.311a61.657,61.657,0,0,0-29.615-11.365c-3.554,0-6.811.692-8.193,4.052a8.308,8.308,0,0,0,1.579,8.1,24.956,24.956,0,0,0,36.229-.791Z" transform="translate(0)"/>
    <path id="パス_149" data-name="パス 149" d="M45.276,97.8c8.019,1.782,16.532-1.683,24.551,1.98,3.069,1.287,5.643-1.584,7.029-4.059a31.086,31.086,0,0,0,4.752-11.979C82.4,72.951,85.27,64.537,97.744,63.349c18.017-1.782,30.491,3.663,36.727,16.037a28.412,28.412,0,0,0,32.273,14.156,24.848,24.848,0,0,0,19.8-25.244c0-7.425,2.871-9.9,9.306-10.89,19.8-1.782,40.192-5.445,60.486-6.039,4.554,0,4.257,1.881,4.95,4.95,4.059,17.918-1.386,35.144-3.861,52.666-.594,3.762-3.465,8.613,0,11.187s7.821-1.98,11.088-4.554a79.2,79.2,0,0,0,29.7-54.943c2.079-17.126,11.582-23.66,28.115-19.205a7.821,7.821,0,0,1,5.049,4.95,113.449,113.449,0,0,1,10.593,58.111,13.86,13.86,0,0,1-7.326,11.483,80.087,80.087,0,0,1-31.976,12.077c-3.762,0-10.692,3.663-11.286-3.861s2.277-12.968,9.9-12.77a29.006,29.006,0,0,0,21.482-11.088,26.729,26.729,0,0,0-5.643-39.6c-3.663-1.98-7.128-3.069-9.9.99s1.386,4.851,4.455,6.237a15.344,15.344,0,0,1,9.207,15.839,21.185,21.185,0,0,1-15.938,18.611c-21.581,6.534-26.531,14.849-21.284,37.123a360.149,360.149,0,0,0,14.948,60.487c8.811,20.492,4.653,40.489,4.653,60.684,0,17.522-11.582,29.7-24.848,40.192a158.394,158.394,0,0,1-56.329,27.323,94.442,94.442,0,0,1-49.5-.99c-23.165-6.534-32.966-23.363-34.154-53.755V250.649c0-7.623-2.475-9.9-10.494-7.128a72.86,72.86,0,0,1-39.6,2.079,58.11,58.11,0,0,1-38.707-30.689C42.6,202.933,37.752,189.172,25.18,180.956c-3.069-2.079-4.653-6.633,0-9.009,6.138-3.168,4.653-8.415,4.851-13.265A30.293,30.293,0,0,1,42.8,132.646c3.465-2.178,4.356-3.96,2.079-7.722a11.484,11.484,0,0,1,2.97-16.631c5.643-4.653,4.752-7.623-2.574-8.613Zm31.283,99c7.524,0,25.838-10.494,25.541-15.641,0-8.514-10.395-7.029-15.146-11.385a15.541,15.541,0,0,0-3.663-2.376A16.235,16.235,0,0,0,62.4,168.68c-3.663,3.267-9.9,4.752-11.88,8.514-3.069,7.326,7.227,5.346,9.9,9.9A15.641,15.641,0,0,0,76.559,196.4Zm-3.168-44.944c-.693-5.445,8.019-11.88.594-15.245s-5.247,6.93-8.811,9.9c-8.514,7.227-1.584,9.9,3.96,12.869,3.861,1.881,8.217,3.663,12.275,0,.99-.891,2.178-2.574,1.881-3.465-1.485-5.544-7.128-1.782-9.9-4.455Zm-9.9-27.125c9.108.99,9.9-6.237,12.374-12.078,1.089-3.069-1.089-6.93-4.158-5.445-6.039,2.871-15.146,2.376-17.027,10.494-1.782,5.247,4.653,4.95,8.415,6.633Zm66.921-3.069a8.415,8.415,0,0,0-.594-3.465c-1.287-3.465-3.267-7.425-7.524-6.237-5.94,1.683-2.178,5.247-.99,8.514s2.277,6.336-1.485,8.613-5.94,3.861-2.376,7.326,6.138,0,8.712-1.386,4.455-6.93,3.861-13.76Zm-41.38-1.089c1.386,2.871,0,8.91,7.227,8.415,4.554,0,10.395-1.584,9.207-6.534a16.532,16.532,0,0,0-11.385-12.671C90.121,109.184,89.032,115.322,89.032,120.568Z" transform="translate(48.639 156.81)" fill="#fdfdfd"/>
    <path id="パス_150" data-name="パス 150" d="M302.881,247.058c-28.808,3.069-56.23-9.306-83.948-19.205C186.66,216.369,153,208.054,123.2,190.333A316,316,0,0,1,64.7,147.072a100.184,100.184,0,0,0-19.8-13.859,31.085,31.085,0,0,1-13.661-35.54C32.524,94.11,34.9,95,37.177,94.6A29.7,29.7,0,0,0,60.54,80.646a4.851,4.851,0,0,1,6.831-2.871,219.378,219.378,0,0,0,44.548,8.91,119.69,119.69,0,0,1,19.8,5.841c37.915,11.484,75.138,26.63,113.845,33.56a349.655,349.655,0,0,1,99,37.519c15.74,8.019,21.878,27.323,18.809,46.825a44.845,44.845,0,0,1-33.461,34.847,82.657,82.657,0,0,1-27.026,1.782Z" transform="translate(115.442 486.559)" fill="#fdfdfd"/>
    <path id="パス_151" data-name="パス 151" d="M193.973,139.179c-19.8,9.9-35.441,25.442-53.953,37.519a127.309,127.309,0,0,1-91.868,16.532c-18.71-2.673-33.362-29.7-30.194-50.587,2.97-19.8,9.9-34.451,31.58-40.39A207.894,207.894,0,0,0,83.593,86.315a32.074,32.074,0,0,1,32.471-1.089C143.387,100.867,172.1,114.133,193.973,139.179Z" transform="translate(6.56 522.963)" fill="#fdfdfd"/>
    <path id="パス_152" data-name="パス 152" d="M24.53,98.853c4.752-27.818,20.492-47.617,37.123-66.822a4.356,4.356,0,0,1,6.534-.891c2.772,1.98,2.376,3.564,1.089,6.237A24.452,24.452,0,0,0,66.6,46.682c-.693,9.9-1.683,21.086,8.811,26.135A42.964,42.964,0,0,0,116.1,71.629a93.65,93.65,0,0,0,23.858-22.274,41.281,41.281,0,0,1,51.577-13.166c4.455,1.584,9.009,2.97,13.364,4.653a23.561,23.561,0,0,1,9.9,38.509c-7.722,8.712-8.613,14.948,1.089,23.066A152.553,152.553,0,0,1,234.5,124.988a4.554,4.554,0,0,1,.792,5.742c-20.987-1.584-41.974,3.465-63.258,4.356a8.613,8.613,0,0,1-9.9-6.633,23.858,23.858,0,0,0-28.808-17.324,24.155,24.155,0,0,0-22.868,24.749c-.792,8.514-3.564,8.91-10.692,7.128a75.533,75.533,0,0,0-34.253,0c-4.059-22.769-9.9-27.818-35.144-27.62-4.158,0-5.445-1.485-5.049-4.851s-2.376-6.93,3.762-5.841a6.534,6.534,0,0,0,4.851-1.584c8.316-9.108,16.631-6.831,24.848,0a6.831,6.831,0,0,0,10-.3c3.762-4.455-.594-6.93-3.663-9.4C51.259,81.529,44.725,82.321,24.53,98.853ZM129.466,84.895a33.065,33.065,0,0,0-18.611,3.96,7.821,7.821,0,0,0-4.455,11.583,7.128,7.128,0,0,0,11.187,2.574,34.055,34.055,0,0,1,39.6,1.386c2.178,1.287,4.752,2.673,6.732,0s0-4.95-1.881-6.534C152.136,91.032,142.632,83.509,129.466,84.895Z" transform="translate(68.511 67.752)" fill="#fdfdfd"/>
    <path id="パス_153" data-name="パス 153" d="M39.32,108.1c1.782-4.257,5.742-4.257,8.514-4.95C74.761,96.519,100,84.541,127.822,80.482c20.591-3.069,40.687-9.9,61.674-3.96A164.04,164.04,0,0,1,227.016,93.45a126.12,126.12,0,0,0,58.507,17.72c5.247,0,10.493,0,13.067,5.643,1.683,3.465-.495,6.237-2.97,8.613a12.672,12.672,0,0,1-15.839,2.178,145.029,145.029,0,0,0-40.39-17.918c-8.811-1.782-17.522-4.059-26.234-6.138-3.564-.891-8.118-2.574-9.306,2.079s3.564,5.049,7.128,5.94a372.749,372.749,0,0,1,40.687,10.889c16.334,6.138,31.877,14.255,38.905,32.075.792,1.98,1.683,3.96,2.475,6.039s2.178,5.841-1.089,7.722-4.356-1.584-6.039-3.168a129.583,129.583,0,0,0-36.034-25.937,43.848,43.848,0,0,0-6.93-3.168c-3.663-.99-8.91-3.069-9.9,1.782s4.554,4.653,7.425,5.841a127.407,127.407,0,0,1,41.677,29.006,12.87,12.87,0,0,1,3.762,14.75c-11.78-8.217-23.165-16.235-34.649-24.056-2.475-1.683-5.346-4.554-8.811-2.376s.693,5.742,0,9.108a37.816,37.816,0,0,1-18.215-6.633,154.631,154.631,0,0,0-60.981-17.522,63.157,63.157,0,0,1-20.888-5.346,251.057,251.057,0,0,0-65.238-19.3C63.475,118.991,52.387,111.072,39.32,108.1Z" transform="translate(199.128 459.202)" fill="#fdfdfd"/>
    <path id="パス_154" data-name="パス 154" d="M33.444,135.149,23.05,139.406C16.021,103.767,37.7,75.158,71.162,75.554a85.631,85.631,0,0,0-5.544,44.053c.495,4.95,0,5.94-5.049,6.138a46.723,46.723,0,0,0-13.661,2.871,9.9,9.9,0,0,1-10.988-1.683c-2.475-2.277-4.257-7.227-8.415-3.267s0,6.435,2.475,9.207A23.763,23.763,0,0,0,33.444,135.149Z" transform="translate(43.939 471.701)" fill="#fdfdfd"/>
    <path id="パス_155" data-name="パス 155" d="M39.025,46.781c11.385,8.91,13.364,8.415,19.8-5.148,2.079-4.653,4.653-1.683,6.534,0,10.494,7.722,13.76,37.222,5.445,47.419A20.987,20.987,0,0,1,38.431,84.3a38.608,38.608,0,0,1,.594-37.519Z" transform="translate(151.385 148.328)" fill="#fdfdfd"/>
    <path id="パス_156" data-name="パス 156" d="M48.548,39.31a19.8,19.8,0,0,1,16.631,19.8,144.043,144.043,0,0,1-.594,18.512,20.888,20.888,0,0,1-22.274,19.8A19.8,19.8,0,0,1,23.6,75.344,39.6,39.6,0,0,1,29.243,52.08c4.851,4.554,9.009,12.176,16.928,7.425S53,48.121,48.548,39.31Z" transform="translate(59.425 149.855)" fill="#fdfdfd"/>
    <path id="パス_157" data-name="パス 157" d="M53.14,104.042c9.9-9.306,21.878-17.126,25.937-31.085,1.188-3.861,5.148-3.267,8.415-3.069A9.108,9.108,0,0,1,96.7,76.224a24.056,24.056,0,0,1-4.95,24.056C79.869,112.457,67.1,108.992,53.14,104.042Z" transform="translate(322.39 420.088)" fill="#fdfdfd"/>
    <path id="パス_158" data-name="パス 158" d="M66.222,86.895a25.046,25.046,0,0,1-36.529.792,8.316,8.316,0,0,1-1.584-8.118c1.386-3.366,4.653-4.059,8.217-4.059A61.872,61.872,0,0,1,66.222,86.895Z" transform="translate(96.463 471.411)" fill="#fdfdfd"/>
    <path id="パス_159" data-name="パス 159" d="M54.62,36.892V34.12a24.151,24.151,0,0,0,2.574.594Z" transform="translate(335.616 103.974)" fill="#fff"/>
    <path id="パス_160" data-name="パス 160" d="M51.774,84.5a15.641,15.641,0,0,1-16.334-8.91c-2.475-4.95-12.77-2.97-9.9-9.9,1.584-3.762,8.217-5.247,11.88-8.514a16.235,16.235,0,0,1,20.888-1.287,15.541,15.541,0,0,1,3.663,2.376c4.752,4.356,14.75,2.871,15.146,11.385C77.612,74,59.3,84.5,51.774,84.5Zm0-8.217c5.841,0,12.473-1.98,11.583-6.534S55.041,61.729,49.2,60.64c-4.059-.792-9.207,2.475-8.811,5.841a11.385,11.385,0,0,0,11.187,9.8Z" transform="translate(73.166 268.677)"/>
    <path id="パス_161" data-name="パス 161" d="M38.393,65.448c2.772,2.673,8.415-1.089,9.9,4.158a6.073,6.073,0,0,1-1.881,3.465c-4.059,3.663-8.415,1.881-12.275,0C28.593,70.4,21.663,67.428,30.177,60.2c3.564-3.069,2.673-12.77,8.811-9.9S37.7,60,38.393,65.448Z" transform="translate(83.362 242.839)"/>
    <path id="パス_162" data-name="パス 162" d="M34.412,64.667c-3.564-1.683-9.9-1.386-8.811-7.029,1.881-8.118,10.989-7.623,17.027-10.494,3.069-1.485,5.247,2.376,4.158,5.445C44.708,58.53,43.52,65.657,34.412,64.667Z" transform="translate(77.068 216.551)"/>
    <path id="パス_163" data-name="パス 163" d="M46.045,57.225c.594,7.227-.594,10.89-4.257,13.364s-5.742,4.356-8.712,1.386-.693-5.544,2.376-7.326,2.475-5.841,1.485-8.613-4.95-6.831.99-8.514c4.257-1.188,6.237,2.772,7.524,6.237a8.415,8.415,0,0,1,.594,3.465Z" transform="translate(132.182 220.91)"/>
    <path id="パス_164" data-name="パス 164" d="M29,57.977c.495-5.247,1.287-11.385,5.049-10.791A16.532,16.532,0,0,1,45.433,59.857c1.188,4.95-4.653,6.336-9.207,6.534C29,66.886,30.188,60.847,29,57.977Z" transform="translate(108.318 219.473)"/>
    <path id="パス_165" data-name="パス 165" d="M57.006,35.74c13.166-1.386,22.67,6.138,32.372,12.968,2.277,1.584,3.762,3.861,1.881,6.534s-4.554,1.287-6.732,0a34.055,34.055,0,0,0-39.6-1.386,7.128,7.128,0,0,1-11.187-2.574A7.821,7.821,0,0,1,38.4,39.8,33.064,33.064,0,0,1,57.006,35.74Z" transform="translate(140.845 116.679)"/>
    <path id="パス_166" data-name="パス 166" d="M37.955,69.328a11.384,11.384,0,0,1-11.385-9.9c0-3.366,4.752-6.633,8.811-5.841,5.841,1.089,13.067,3.366,14.156,9.108S43.8,69.13,37.955,69.328Z" transform="translate(86.759 275.629)" fill="#fdfdfd"/>
    <path id="パス_167" data-name="パス 167" d="M45.276,97.8c8.019,1.782,16.532-1.683,24.551,1.98,3.069,1.287,5.643-1.584,7.029-4.059a31.086,31.086,0,0,0,4.752-11.979C82.4,72.951,85.27,64.537,97.744,63.349c18.017-1.782,30.491,3.663,36.727,16.037a28.412,28.412,0,0,0,32.273,14.156,24.848,24.848,0,0,0,19.8-25.244c0-7.425,2.871-9.9,9.306-10.89,19.8-1.782,40.192-5.445,60.486-6.039,4.554,0,4.257,1.881,4.95,4.95,4.059,17.918-1.386,35.144-3.861,52.666-.594,3.762-3.465,8.613,0,11.187s7.821-1.98,11.088-4.554a79.2,79.2,0,0,0,29.7-54.943c2.079-17.126,11.582-23.66,28.115-19.205a7.821,7.821,0,0,1,5.049,4.95,113.449,113.449,0,0,1,10.593,58.111,13.86,13.86,0,0,1-7.326,11.483,80.087,80.087,0,0,1-31.976,12.077c-3.762,0-10.692,3.663-11.286-3.861s2.277-12.968,9.9-12.77a29.006,29.006,0,0,0,21.482-11.088,26.729,26.729,0,0,0-5.643-39.6c-3.663-1.98-7.128-3.069-9.9.99s1.386,4.851,4.455,6.237a15.344,15.344,0,0,1,9.207,15.839,21.185,21.185,0,0,1-15.938,18.611c-21.581,6.534-26.531,14.849-21.284,37.123a360.149,360.149,0,0,0,14.948,60.487c8.811,20.492,4.653,40.489,4.653,60.684,0,17.522-11.582,29.7-24.848,40.192a158.394,158.394,0,0,1-56.329,27.323,94.442,94.442,0,0,1-49.5-.99c-23.165-6.534-32.966-23.363-34.154-53.755V250.649c0-7.623-2.475-9.9-10.494-7.128a72.86,72.86,0,0,1-39.6,2.079,58.11,58.11,0,0,1-38.707-30.689C42.6,202.933,37.752,189.172,25.18,180.956c-3.069-2.079-4.653-6.633,0-9.009,6.138-3.168,4.653-8.415,4.851-13.265A30.293,30.293,0,0,1,42.8,132.646c3.465-2.178,4.356-3.96,2.079-7.722a11.484,11.484,0,0,1,2.97-16.631c5.643-4.653,4.752-7.623-2.574-8.613Zm31.283,99c7.524,0,25.838-10.494,25.541-15.641,0-8.514-10.395-7.029-15.146-11.385a15.541,15.541,0,0,0-3.663-2.376A16.235,16.235,0,0,0,62.4,168.68c-3.663,3.267-9.9,4.752-11.88,8.514-3.069,7.326,7.227,5.346,9.9,9.9A15.641,15.641,0,0,0,76.559,196.4Zm-3.168-44.944c-.693-5.445,8.019-11.88.594-15.245s-5.247,6.93-8.811,9.9c-8.514,7.227-1.584,9.9,3.96,12.869,3.861,1.881,8.217,3.663,12.275,0,.99-.891,2.178-2.574,1.881-3.465-1.485-5.544-7.128-1.782-9.9-4.455Zm-9.9-27.125c9.108.99,9.9-6.237,12.374-12.078,1.089-3.069-1.089-6.93-4.158-5.445-6.039,2.871-15.146,2.376-17.027,10.494-1.782,5.247,4.653,4.95,8.415,6.633Zm66.921-3.069a8.415,8.415,0,0,0-.594-3.465c-1.287-3.465-3.267-7.425-7.524-6.237-5.94,1.683-2.178,5.247-.99,8.514s2.277,6.336-1.485,8.613-5.94,3.861-2.376,7.326,6.138,0,8.712-1.386,4.455-6.93,3.861-13.76Zm-41.38-1.089c1.386,2.871,0,8.91,7.227,8.415,4.554,0,10.395-1.584,9.207-6.534a16.532,16.532,0,0,0-11.385-12.671C90.121,109.184,89.032,115.322,89.032,120.568Z" transform="translate(48.639 156.81)" fill="#fff"/>
    <path id="パス_168" data-name="パス 168" d="M302.881,247.058c-28.808,3.069-56.23-9.306-83.948-19.205C186.66,216.369,153,208.054,123.2,190.333A316,316,0,0,1,64.7,147.072a100.184,100.184,0,0,0-19.8-13.859,31.085,31.085,0,0,1-13.661-35.54C32.524,94.11,34.9,95,37.177,94.6A29.7,29.7,0,0,0,60.54,80.646a4.851,4.851,0,0,1,6.831-2.871,219.378,219.378,0,0,0,44.548,8.91,119.69,119.69,0,0,1,19.8,5.841c37.915,11.484,75.138,26.63,113.845,33.56a349.655,349.655,0,0,1,99,37.519c15.74,8.019,21.878,27.323,18.809,46.825a44.845,44.845,0,0,1-33.461,34.847,82.657,82.657,0,0,1-27.026,1.782Z" transform="translate(115.442 486.559)" fill="#fdfdfd"/>
    <path id="パス_169" data-name="パス 169" d="M193.973,139.179c-19.8,9.9-35.441,25.442-53.953,37.519a127.309,127.309,0,0,1-91.868,16.532c-18.71-2.673-33.362-29.7-30.194-50.587,2.97-19.8,9.9-34.451,31.58-40.39A207.894,207.894,0,0,0,83.593,86.315a32.074,32.074,0,0,1,32.471-1.089C143.387,100.867,172.1,114.133,193.973,139.179Z" transform="translate(6.56 522.963)" fill="#fdfdfd"/>
    <path id="パス_170" data-name="パス 170" d="M24.53,98.853c4.752-27.818,20.492-47.617,37.123-66.822a4.356,4.356,0,0,1,6.534-.891c2.772,1.98,2.376,3.564,1.089,6.237A24.452,24.452,0,0,0,66.6,46.682c-.693,9.9-1.683,21.086,8.811,26.135A42.964,42.964,0,0,0,116.1,71.629a93.65,93.65,0,0,0,23.858-22.274,41.281,41.281,0,0,1,51.577-13.166c4.455,1.584,9.009,2.97,13.364,4.653a23.561,23.561,0,0,1,9.9,38.509c-7.722,8.712-8.613,14.948,1.089,23.066A152.553,152.553,0,0,1,234.5,124.988a4.554,4.554,0,0,1,.792,5.742c-20.987-1.584-41.974,3.465-63.258,4.356a8.613,8.613,0,0,1-9.9-6.633,23.858,23.858,0,0,0-28.808-17.324,24.155,24.155,0,0,0-22.868,24.749c-.792,8.514-3.564,8.91-10.692,7.128a75.533,75.533,0,0,0-34.253,0c-4.059-22.769-9.9-27.818-35.144-27.62-4.158,0-5.445-1.485-5.049-4.851s-2.376-6.93,3.762-5.841a6.534,6.534,0,0,0,4.851-1.584c8.316-9.108,16.631-6.831,24.848,0a6.831,6.831,0,0,0,10-.3c3.762-4.455-.594-6.93-3.663-9.4C51.259,81.529,44.725,82.321,24.53,98.853ZM129.466,84.895a33.065,33.065,0,0,0-18.611,3.96,7.821,7.821,0,0,0-4.455,11.583,7.128,7.128,0,0,0,11.187,2.574,34.055,34.055,0,0,1,39.6,1.386c2.178,1.287,4.752,2.673,6.732,0s0-4.95-1.881-6.534C152.136,91.032,142.632,83.509,129.466,84.895Z" transform="translate(68.511 67.752)" fill="#fdfdfd"/>
    <path id="パス_171" data-name="パス 171" d="M39.32,108.1c1.782-4.257,5.742-4.257,8.514-4.95C74.761,96.519,100,84.541,127.822,80.482c20.591-3.069,40.687-9.9,61.674-3.96A164.04,164.04,0,0,1,227.016,93.45a126.12,126.12,0,0,0,58.507,17.72c5.247,0,10.493,0,13.067,5.643,1.683,3.465-.495,6.237-2.97,8.613a12.672,12.672,0,0,1-15.839,2.178,145.029,145.029,0,0,0-40.39-17.918c-8.811-1.782-17.522-4.059-26.234-6.138-3.564-.891-8.118-2.574-9.306,2.079s3.564,5.049,7.128,5.94a372.749,372.749,0,0,1,40.687,10.889c16.334,6.138,31.877,14.255,38.905,32.075.792,1.98,1.683,3.96,2.475,6.039s2.178,5.841-1.089,7.722-4.356-1.584-6.039-3.168a129.583,129.583,0,0,0-36.034-25.937,43.848,43.848,0,0,0-6.93-3.168c-3.663-.99-8.91-3.069-9.9,1.782s4.554,4.653,7.425,5.841a127.407,127.407,0,0,1,41.677,29.006,12.87,12.87,0,0,1,3.762,14.75c-11.78-8.217-23.165-16.235-34.649-24.056-2.475-1.683-5.346-4.554-8.811-2.376s.693,5.742,0,9.108a37.816,37.816,0,0,1-18.215-6.633,154.631,154.631,0,0,0-60.981-17.522,63.157,63.157,0,0,1-20.888-5.346,251.057,251.057,0,0,0-65.238-19.3C63.475,118.991,52.387,111.072,39.32,108.1Z" transform="translate(199.128 459.202)" fill="#fdfdfd"/>
    <path id="パス_172" data-name="パス 172" d="M33.444,135.149,23.05,139.406C16.021,103.767,37.7,75.158,71.162,75.554a85.631,85.631,0,0,0-5.544,44.053c.495,4.95,0,5.94-5.049,6.138a46.723,46.723,0,0,0-13.661,2.871,9.9,9.9,0,0,1-10.988-1.683c-2.475-2.277-4.257-7.227-8.415-3.267s0,6.435,2.475,9.207A23.763,23.763,0,0,0,33.444,135.149Z" transform="translate(43.939 471.701)" fill="#fdfdfd"/>
    <path id="パス_173" data-name="パス 173" d="M39.025,46.781c11.385,8.91,13.364,8.415,19.8-5.148,2.079-4.653,4.653-1.683,6.534,0,10.494,7.722,13.76,37.222,5.445,47.419A20.987,20.987,0,0,1,38.431,84.3a38.608,38.608,0,0,1,.594-37.519Z" transform="translate(151.385 148.328)" fill="#fdfdfd"/>
    <path id="パス_174" data-name="パス 174" d="M48.548,39.31a19.8,19.8,0,0,1,16.631,19.8,144.043,144.043,0,0,1-.594,18.512,20.888,20.888,0,0,1-22.274,19.8A19.8,19.8,0,0,1,23.6,75.344,39.6,39.6,0,0,1,29.243,52.08c4.851,4.554,9.009,12.176,16.928,7.425S53,48.121,48.548,39.31Z" transform="translate(59.425 149.855)" fill="#fdfdfd"/>
    <path id="パス_175" data-name="パス 175" d="M53.14,104.042c9.9-9.306,21.878-17.126,25.937-31.085,1.188-3.861,5.148-3.267,8.415-3.069A9.108,9.108,0,0,1,96.7,76.224a24.056,24.056,0,0,1-4.95,24.056C79.869,112.457,67.1,108.992,53.14,104.042Z" transform="translate(322.39 420.088)" fill="#fdfdfd"/>
    <path id="パス_176" data-name="パス 176" d="M66.222,86.895a25.046,25.046,0,0,1-36.529.792,8.316,8.316,0,0,1-1.584-8.118c1.386-3.366,4.653-4.059,8.217-4.059A61.872,61.872,0,0,1,66.222,86.895Z" transform="translate(96.463 471.411)" fill="#fdfdfd"/>
    <path id="パス_177" data-name="パス 177" d="M54.62,36.892V34.12a24.151,24.151,0,0,0,2.574.594Z" transform="translate(335.616 103.974)" fill="#fff"/>
    <path id="パス_178" data-name="パス 178" d="M51.774,84.5a15.641,15.641,0,0,1-16.334-8.91c-2.475-4.95-12.77-2.97-9.9-9.9,1.584-3.762,8.217-5.247,11.88-8.514a16.235,16.235,0,0,1,20.888-1.287,15.541,15.541,0,0,1,3.663,2.376c4.752,4.356,14.75,2.871,15.146,11.385C77.612,74,59.3,84.5,51.774,84.5Zm0-8.217c5.841,0,12.473-1.98,11.583-6.534S55.041,61.729,49.2,60.64c-4.059-.792-9.207,2.475-8.811,5.841a11.385,11.385,0,0,0,11.187,9.8Z" transform="translate(73.166 268.677)"/>
    <path id="パス_179" data-name="パス 179" d="M38.393,65.448c2.772,2.673,8.415-1.089,9.9,4.158a6.073,6.073,0,0,1-1.881,3.465c-4.059,3.663-8.415,1.881-12.275,0C28.593,70.4,21.663,67.428,30.177,60.2c3.564-3.069,2.673-12.77,8.811-9.9S37.7,60,38.393,65.448Z" transform="translate(83.362 242.839)"/>
    <path id="パス_180" data-name="パス 180" d="M34.412,64.667c-3.564-1.683-9.9-1.386-8.811-7.029,1.881-8.118,10.989-7.623,17.027-10.494,3.069-1.485,5.247,2.376,4.158,5.445C44.708,58.53,43.52,65.657,34.412,64.667Z" transform="translate(77.068 216.551)"/>
    <path id="パス_181" data-name="パス 181" d="M46.045,57.225c.594,7.227-.594,10.89-4.257,13.364s-5.742,4.356-8.712,1.386-.693-5.544,2.376-7.326,2.475-5.841,1.485-8.613-4.95-6.831.99-8.514c4.257-1.188,6.237,2.772,7.524,6.237a8.415,8.415,0,0,1,.594,3.465Z" transform="translate(132.182 220.91)"/>
    <path id="パス_182" data-name="パス 182" d="M29,57.977c.495-5.247,1.287-11.385,5.049-10.791A16.532,16.532,0,0,1,45.433,59.857c1.188,4.95-4.653,6.336-9.207,6.534C29,66.886,30.188,60.847,29,57.977Z" transform="translate(108.318 219.473)"/>
    <path id="パス_183" data-name="パス 183" d="M57.006,35.74c13.166-1.386,22.67,6.138,32.372,12.968,2.277,1.584,3.762,3.861,1.881,6.534s-4.554,1.287-6.732,0a34.055,34.055,0,0,0-39.6-1.386,7.128,7.128,0,0,1-11.187-2.574A7.821,7.821,0,0,1,38.4,39.8,33.064,33.064,0,0,1,57.006,35.74Z" transform="translate(140.845 116.679)"/>
    <path id="パス_184" data-name="パス 184" d="M37.955,69.328a11.384,11.384,0,0,1-11.385-9.9c0-3.366,4.752-6.633,8.811-5.841,5.841,1.089,13.067,3.366,14.156,9.108S43.8,69.13,37.955,69.328Z" transform="translate(86.759 275.629)" fill="#fdfdfd"/>
  </g>
</svg>
