<svg xmlns="http://www.w3.org/2000/svg" width="499.631" height="734.468" viewBox="0 0 499.631 734.468">
  <g id="shirome_アートボード_1_のコピー_2" data-name="shirome_アートボード 1 のコピー 2" transform="translate(-16.879 -22.867)">
    <path id="パス_187" data-name="パス 187" d="M94.9,260.146a41.974,41.974,0,0,1-11.072-60.394c2.516-3.221,5.637-5.637,4.228-10.066-5.939-21.239,1.812-40.263,11.878-57.777A175.545,175.545,0,0,1,193.339,54.4c23.856-9.462,49.322-8.053,74.385-7.549,20.635,0,41.37,1.409,58.784,14.495,3.825-.906,2.718-4.127,3.422-6.341a45.6,45.6,0,0,1,40.263-31.3,40.263,40.263,0,0,1,43.484,20.131c10.066,17.514,10.972,43.282-12.985,53.247-3.926,1.611-11.676,2.617-10.066,7.751,1.812,6.744,10.066,5.737,15.4,4.832a294.685,294.685,0,0,0,28.888-6.845c2.818-.7,5.838-3.12,7.952,0s0,7.046-2.718,10.066A68.95,68.95,0,0,1,401.6,131.2a37.344,37.344,0,0,0,25.265,13.79,114.254,114.254,0,0,0,13.991,0c2.818,0,5.435.805,5.737,3.825s-2.617,4.731-5.838,4.932a52.644,52.644,0,0,1-30.1-5.737l-10.066-6.241-2.516-.6v2.718c4.63,16.206-1.912,30.2-8.656,44.289a7.448,7.448,0,0,0,1.107,10.569,61.3,61.3,0,0,1,12.884,31.1,223.551,223.551,0,0,1,3.12,32.915,25.969,25.969,0,0,1-16,24.862c-3.523,2.013-7.348,3.422-10.871,5.435-5.939,3.322-15.4,2.013-18.219,7.851a46.1,46.1,0,0,0,0,20.735,189.451,189.451,0,0,1-2.214,32.009c-.906,9.059,3.624,12.582,11.777,13.085a233.624,233.624,0,0,1,88.175,25.869,67.137,67.137,0,0,1,30.2,27.882,139.308,139.308,0,0,1,17.112,72.171,505.088,505.088,0,0,1-5.234,73.882,6.945,6.945,0,0,0,4.127,8.656c14.7,8.656,15,22.044,0,30.8-5.737,3.422-5.033,5.133-2.315,10.066,6.341,10.871,11.676,21.138,1.51,34.324-3.221,4.127-2.718,15.2-4.429,22.446-4.127,16.608-.805,34.324-8.153,50.328a52.443,52.443,0,0,1-46,32.411,144.845,144.845,0,0,1-62.306-3.825c-48.416-17.011-98.744-29.392-144.241-54.355a68.851,68.851,0,0,1-15.8-10.066,15.3,15.3,0,0,0-22.95-.6c-16.407,11.878-33.217,23.252-49.724,35.029a104.482,104.482,0,0,1-58.28,17.716c-8.053,0-16.407-.805-24.359,0C42.253,743.2,14.17,713.3,17.089,689.145a110.722,110.722,0,0,1,2.516-25.164,52.141,52.141,0,0,0,.805-18.118A919.2,919.2,0,0,1,30.476,497.092c4.53-30.2,28.184-69.051,75.795-93.712C97.212,389.892,88.555,376.5,80.2,362.413a43.485,43.485,0,0,0-10.066-10.066A13.991,13.991,0,0,1,68.424,329.5a14.9,14.9,0,0,0,3.02-9.16,44.893,44.893,0,0,1,10.67-27.177,7.952,7.952,0,0,0,2.013-7.147A22.95,22.95,0,0,1,95.1,262.36c7.449.906,8.355,3.926,2.617,8.757a11.676,11.676,0,0,0-3.02,16.508c2.416,3.926,1.51,5.737-2.013,7.952A30.2,30.2,0,0,0,79.7,322.049c0,4.932,1.309,10.066-4.932,13.488-4.63,2.315-2.919,7.046,0,9.059,12.783,8.455,17.716,22.446,24.862,34.626a58.884,58.884,0,0,0,39.256,31.2,74.386,74.386,0,0,0,40.263-2.114c8.053-2.919,10.066.6,10.67,7.247s0,15.5,0,23.252c1.208,30.9,11.173,48.013,34.626,54.657a97.536,97.536,0,0,0,50.328,1.007A162.761,162.761,0,0,0,332.749,467.1c13.488-10.066,25.366-23.151,25.265-40.967,0-20.131,4.228-40.263-4.731-61.7a363.773,363.773,0,0,1-15.2-61.5c-5.335-22.547,0-31,21.641-37.646a21.641,21.641,0,0,0,16.206-19.628,15.6,15.6,0,0,0-9.361-16.105c-3.12-1.409-7.247-1.711-4.63-6.341s5.939-3.02,10.066-1.007a27.177,27.177,0,0,1,5.737,40.263A29.19,29.19,0,0,1,355.8,273.634c-8.052,0-10.77,6.643-10.066,13.085s7.65,4.328,11.475,3.926a81.632,81.632,0,0,0,32.713-12.481,13.488,13.488,0,0,0,7.348-11.576A113.842,113.842,0,0,0,386.6,207.5a7.952,7.952,0,0,0-5.133-5.033c-16.81-4.53-26.473,2.114-28.587,19.527a80.525,80.525,0,0,1-30.2,55.865c-3.221,2.617-6.442,7.751-11.173,4.63s-.906-7.549,0-11.475c2.617-17.716,8.153-35.23,3.926-53.549-.6-3.02,0-5.133-4.932-4.932-20.131,0-40.967,4.328-61.5,6.14-6.543.6-9.361,3.422-9.462,11.072a25.265,25.265,0,0,1-20.131,25.667,28.888,28.888,0,0,1-32.814-14.394c-7.449-12.28-20.031-17.816-38.35-15.5-12.683,1.309-15.6,10.066-16.407,20.836a32.21,32.21,0,0,1-4.832,12.179c-1.409,2.516-4.026,5.435-7.147,4.026C111.606,258.334,103.05,261.957,94.9,260.146ZM426.158,747.928a84.047,84.047,0,0,0,27.177-1.812,45.4,45.4,0,0,0,33.921-35.431c3.221-20.131-3.02-39.457-19.024-47.711a358.639,358.639,0,0,0-100.153-38.149c-39.357-7.046-77.2-22.346-115.755-34.123a132.465,132.465,0,0,0-20.131-5.939,216.217,216.217,0,0,1-45.3-8.958,5.033,5.033,0,0,0-7.046,2.919A30.2,30.2,0,0,1,156.2,592.917c-2.315,0-4.832,0-6.039,3.12a31.506,31.506,0,0,0,13.891,36.035,100.664,100.664,0,0,1,20.131,14.193,325.926,325.926,0,0,0,59.488,43.987c30.1,18.42,64.32,26.472,97.033,38.551C368.985,738.869,396.867,751.049,426.158,747.928ZM203.3,675.254c-22.346-25.466-51.536-38.954-79.217-54.858A32.613,32.613,0,0,0,91.072,621.5a219.939,219.939,0,0,1-34.626,16.709C34.4,644.252,27.356,659.35,24.336,679.28c-3.221,21.641,11.676,48.718,30.7,51.436A129.444,129.444,0,0,0,148.949,713.4C167.269,701.123,183.676,685.421,203.3,675.254ZM94.393,170.158c20.131-16.91,27.177-17.615,41.672-5.637,3.12,2.617,7.549,5.133,3.724,10.066a7.046,7.046,0,0,1-10.77,0c-8.254-6.845-16.709-9.16-25.164,0a6.241,6.241,0,0,1-4.932,1.51c-6.241-1.007-3.624,3.624-3.926,6.039s1.007,4.932,5.234,4.932c25.366,0,31.606,4.832,35.733,28.083a78.21,78.21,0,0,1,34.827,0c7.247,1.812,10.066,1.51,10.871-7.247a24.56,24.56,0,0,1,23.252-25.064,24.158,24.158,0,0,1,29.291,17.514,8.656,8.656,0,0,0,10.066,6.744c21.641-.805,42.98-5.939,64.219-4.429a4.328,4.328,0,0,0-.7-5.737,145.348,145.348,0,0,0-18.923-22.95c-10.066-8.355-8.958-14.6-1.107-23.453a23.956,23.956,0,0,0-10.066-39.155c-4.429-1.812-9.059-3.221-13.589-4.832a42.175,42.175,0,0,0-52.442,13.387A97.337,97.337,0,0,1,187.4,142.478a43.685,43.685,0,0,1-41.37,1.208c-10.67-5.234-10.066-16.508-8.958-26.573a24.359,24.359,0,0,1,2.718-9.462c1.309-2.718,1.711-4.328-1.107-6.341a4.228,4.228,0,0,0-6.643.906C115.229,121.742,99.225,141.773,94.393,170.158ZM243.265,578.724c13.287,3.12,24.46,11.173,38.048,13.387a255.567,255.567,0,0,1,66.333,20.131,68.748,68.748,0,0,0,21.239,5.435,157.732,157.732,0,0,1,61.9,17.414,36.942,36.942,0,0,0,18.118,6.643c1.007-3.422-3.724-6.643,0-9.26s6.442.7,8.958,2.416c11.676,7.952,23.252,16.206,35.23,24.56a13.186,13.186,0,0,0-3.825-15,131.357,131.357,0,0,0-42.377-29.593c-2.919-1.107-9.059-.805-7.549-5.838s6.845-2.818,10.066-1.812a44.076,44.076,0,0,1,7.046,3.12A132.162,132.162,0,0,1,492.994,636.8c1.812,1.611,3.12,4.932,6.241,3.221s2.114-5.133,1.107-7.851-1.711-4.127-2.516-6.14c-7.147-18.118-22.95-26.372-39.558-32.613a357.833,357.833,0,0,0-41.37-11.173c-3.724-.906-8.455-1.107-7.247-5.939s5.838-3.02,9.462-2.214c8.858,2.114,17.716,4.429,26.674,6.341a143.029,143.029,0,0,1,41.068,18.219,12.985,12.985,0,0,0,16.1-2.315c2.416-2.315,4.731-5.134,3.02-8.757-2.718-5.637-7.952-5.536-13.287-5.637A128.639,128.639,0,0,1,433.1,563.928a161.858,161.858,0,0,0-38.048-17.212c-21.339-5.536-41.773.906-62.709,4.026-28.285,4.127-53.952,16.306-81.331,23.05C249.606,574.4,245.076,574.4,243.265,578.724ZM78.489,618.685a21.742,21.742,0,0,1-3.422-2.617c-2.214-2.818-6.14-5.838-2.516-9.361s6.039,1.007,8.556,3.322a10.066,10.066,0,0,0,11.173,1.711,46.2,46.2,0,0,1,13.891-2.919c4.731,0,5.637-1.208,5.133-6.241a87.068,87.068,0,0,1,5.637-44.088c-34.022,0-56.066,28.687-48.919,64.924ZM193.339,237.2a21.339,21.339,0,0,0,32.915,4.932c8.455-10.066,10.066-58.079-23.252-51.335-15.2,4.53-16.407,34.022-10.166,46.4ZM109.794,193.41C94.9,192,84.328,199.349,84.428,229.848a20.131,20.131,0,0,0,18.923,22.447A21.339,21.339,0,0,0,126.1,232.163c.2-6.643,3.624-36.84-16.81-38.753ZM382.272,534.536c14.293,4.932,27.278,8.556,39.357-3.926a24.359,24.359,0,0,0,5.033-24.359,9.26,9.26,0,0,0-9.361-6.442c-3.322,0-7.348-.906-8.556,3.02C404.618,517.424,392.841,525.074,382.272,534.536ZM165.155,569.363a63.011,63.011,0,0,0-30.2-11.676c-3.624,0-6.945.7-8.354,4.127a8.858,8.858,0,0,0,1.51,8.355,25.668,25.668,0,0,0,37.042-.805Z" transform="translate(0 0)"/>
    <path id="パス_188" data-name="パス 188" d="M45.749,99.233c8.153,1.812,16.709-1.812,24.963,1.912,3.12,1.409,5.737-1.51,7.147-4.026A32.211,32.211,0,0,0,82.69,84.738C83.5,73.767,86.415,65.211,99.1,63.9c18.32-1.812,31,3.724,37.344,16.407A28.888,28.888,0,0,0,169.255,94.8a25.265,25.265,0,0,0,20.131-25.667c0-7.65,2.919-10.066,9.462-11.072,20.131-1.812,40.867-5.637,61.5-6.14,4.63,0,4.328,1.912,4.932,4.932,4.228,18.32-1.309,35.834-3.926,53.549,0,3.926-3.422,8.757,0,11.475s7.952-2.013,11.173-4.63a80.526,80.526,0,0,0,30.2-55.865c2.516-16.91,12.179-23.956,28.587-19.427a7.952,7.952,0,0,1,5.133,5.033,113.843,113.843,0,0,1,10.67,59.086,13.488,13.488,0,0,1-7.348,11.576,81.633,81.633,0,0,1-32.713,12.481c-3.825,0-10.871,3.624-11.475-3.926s2.214-13.287,10.066-13.085a29.191,29.191,0,0,0,21.943-11.173,27.177,27.177,0,0,0-5.737-40.263c-3.724-2.013-7.247-3.12-10.066,1.007s1.51,4.932,4.63,6.341a15.6,15.6,0,0,1,9.361,16.105,21.641,21.641,0,0,1-16.206,18.923c-22.044,6.643-26.976,15.1-21.641,37.646a363.773,363.773,0,0,0,15.2,61.5c8.958,20.937,4.63,41.269,4.731,61.7,0,17.816-11.777,30.2-25.265,40.967a162.763,162.763,0,0,1-57.274,27.781,97.538,97.538,0,0,1-50.328-1.007C151.54,326.013,141.575,308.9,140.367,278V254.748c0-7.751-2.617-10.066-10.67-7.247a74.386,74.386,0,0,1-40.263,2.114,58.884,58.884,0,0,1-39.256-31.2c-7.147-12.18-12.079-26.171-24.862-34.626-3.12-2.013-4.832-6.744,0-9.059,6.241-3.221,4.63-8.556,4.932-13.488a30.2,30.2,0,0,1,13.085-26.171c3.523-2.215,4.429-4.026,2.013-7.952a11.676,11.676,0,0,1,3.02-16.508c5.737-4.832,4.832-7.851-2.617-8.757A16.3,16.3,0,0,1,45.749,99.233ZM77.456,199.89c7.751,0,26.372-10.67,26.07-15.9,0-8.757-10.569-7.147-15.4-11.676a19.427,19.427,0,0,0-3.724-2.315A16.508,16.508,0,0,0,63.163,171.3c-3.724,3.322-10.066,4.731-12.079,8.656-3.12,7.449,7.247,5.435,10.066,10.066a16,16,0,0,0,16.306,9.462Zm-3.221-45.8c-.6-5.435,8.254-12.079.7-15.5s-5.335,7.147-9.059,10.066c-8.556,7.348-1.51,10.066,4.127,13.085,3.926,1.812,8.355,3.624,12.481,0,.906-.906,2.214-2.617,1.912-3.624-1.51-5.435-7.247-1.61-10.166-4.429ZM64.17,126.611c9.26,1.007,10.066-6.442,12.582-12.28,1.107-3.221-1.107-7.046-4.228-5.637-6.14,2.919-15.5,2.416-17.414,10.67C53.5,125,60.244,125,63.868,126.209Zm68.044-3.12a8.153,8.153,0,0,0-.7-3.523c-1.208-3.523-3.221-7.549-7.65-6.341-5.939,1.711-2.114,5.335-.906,8.656s2.315,6.442-1.51,8.656-6.14,4.026-2.416,7.549,6.241,0,8.858-1.51,4.63-6.543,4.026-13.891Zm-42.477-1.208c1.409,3.02,0,9.059,7.348,8.656,4.53,0,10.066-1.611,9.26-6.643A16.407,16.407,0,0,0,94.87,111.412C91.347,110.808,90.542,117.049,89.736,122.283Z" transform="translate(49.147 160.913)" fill="#fdfdfd"/>
    <path id="パス_189" data-name="パス 189" d="M307.5,250.409c-29.291,3.12-57.173-9.462-85.458-19.527-32.713-11.676-66.937-20.131-97.234-38.149a325.929,325.929,0,0,1-59.488-43.987,100.655,100.655,0,0,0-20.131-14.193A31.506,31.506,0,0,1,31.3,98.517c1.208-3.624,3.724-2.718,6.039-3.12A30.2,30.2,0,0,0,61,81.2a5.033,5.033,0,0,1,7.046-2.919,216.208,216.208,0,0,0,45.3,8.958,132.472,132.472,0,0,1,20.131,5.939c38.552,11.777,76.4,27.077,115.755,34.123a358.643,358.643,0,0,1,100.154,38.149c16,8.254,22.245,27.882,19.024,47.711A45.4,45.4,0,0,1,334.481,248.6a84.044,84.044,0,0,1-26.976,1.812Z" transform="translate(118.654 497.52)" fill="#fdfdfd"/>
    <path id="パス_190" data-name="パス 190" d="M196.984,140.649c-19.628,10.066-36.035,25.869-54.858,38.149a129.444,129.444,0,0,1-93.41,16.81c-19.024-2.718-33.921-30.2-30.7-51.436,3.02-20.131,10.066-35.029,32.11-41.068A219.934,219.934,0,0,0,84.752,86.9a32.613,32.613,0,0,1,33.015-1.107C145.448,101.7,174.638,115.183,196.984,140.649Z" transform="translate(6.32 534.605)" fill="#fdfdfd"/>
    <path id="パス_191" data-name="パス 191" d="M24.58,100.61c4.832-28.385,20.836-48.416,37.746-67.943a4.228,4.228,0,0,1,6.643-.906c2.818,2.013,2.416,3.624,1.107,6.341a24.359,24.359,0,0,0-2.718,9.462c-.7,10.066-1.711,21.339,8.958,26.573a43.685,43.685,0,0,0,41.37-1.208,97.336,97.336,0,0,0,24.258-22.547A42.175,42.175,0,0,1,194.388,37c4.53,1.61,9.16,3.02,13.589,4.831a23.956,23.956,0,0,1,10.066,39.156c-7.851,8.858-8.757,15.1,1.107,23.453a145.352,145.352,0,0,1,18.924,22.95,4.328,4.328,0,0,1,.7,5.737c-21.239-1.51-42.578,3.624-64.219,4.429a8.657,8.657,0,0,1-10.066-6.744A24.158,24.158,0,0,0,135.2,113.293a24.56,24.56,0,0,0-23.252,25.064c-.805,8.757-3.624,9.059-10.871,7.247a78.209,78.209,0,0,0-34.827,0c-4.127-23.252-10.066-28.385-35.733-28.083-4.228,0-5.536-1.51-5.234-4.932s-2.315-7.046,3.926-6.039a6.241,6.241,0,0,0,4.932-1.51c8.455-9.361,16.91-7.046,25.164,0a7.046,7.046,0,0,0,10.77,0c3.825-4.53-.6-7.046-3.724-10.066C51.757,83,45.114,83.7,24.58,100.61Zm106.7-14.193a34.022,34.022,0,0,0-19.024,3.926,8.053,8.053,0,0,0-4.429,11.777,7.247,7.247,0,0,0,11.274,2.718,34.827,34.827,0,0,1,40.263,1.309c2.214,1.409,4.831,2.818,6.845,0s0-5.033-1.912-6.543C154.327,92.659,144.664,85.512,131.276,86.418Z" transform="translate(69.813 69.548)" fill="#fdfdfd"/>
    <path id="パス_192" data-name="パス 192" d="M39.37,109.07c1.812-4.328,5.838-4.328,8.656-4.932,27.379-6.744,53.046-18.923,81.331-23.05,20.937-3.12,41.37-10.066,62.709-4.026a161.857,161.857,0,0,1,38.048,17.212A128.64,128.64,0,0,0,289.7,112.291c5.335,0,10.569,0,13.287,5.637,1.711,3.624-.6,6.442-3.02,8.757A12.985,12.985,0,0,1,283.865,129,143.029,143.029,0,0,0,242.8,110.781c-8.958-1.912-17.816-4.227-26.674-6.341-3.624-.805-8.254-2.516-9.462,2.214s3.523,5.033,7.247,5.939a357.834,357.834,0,0,1,41.37,11.173c16.608,6.241,32.411,14.495,39.558,32.613.805,2.013,1.711,4.026,2.516,6.14s2.214,5.939-1.107,7.851-4.429-1.611-6.241-3.221a132.164,132.164,0,0,0-36.538-26.473,44.078,44.078,0,0,0-7.046-3.12c-3.724-1.006-9.059-3.221-10.066,1.812s4.63,4.731,7.549,5.838A131.356,131.356,0,0,1,286.281,174.8a13.186,13.186,0,0,1,3.825,15c-11.978-8.355-23.554-16.608-35.23-24.56-2.516-1.711-5.435-4.63-8.958-2.416s.7,5.838,0,9.26a36.942,36.942,0,0,1-18.118-6.643,157.729,157.729,0,0,0-62-17.816,68.749,68.749,0,0,1-21.239-5.435,255.561,255.561,0,0,0-66.333-20.131C63.83,120.243,52.657,112.191,39.37,109.07Z" transform="translate(203.895 469.654)" fill="#fdfdfd"/>
    <path id="パス_193" data-name="パス 193" d="M33.278,136.277l-10.066,4.731c-7.147-36.236,14.9-65.326,48.919-64.924a87.068,87.068,0,0,0-5.637,44.088c.5,5.033,0,5.939-5.133,6.241a46.206,46.206,0,0,0-13.891,2.919A10.066,10.066,0,0,1,36.3,127.62c-2.516-2.315-4.328-7.449-8.556-3.322s0,6.543,2.516,9.361A21.74,21.74,0,0,0,33.278,136.277Z" transform="translate(45.212 482.408)" fill="#fdfdfd"/>
    <path id="パス_194" data-name="パス 194" d="M50.279,39.59C70.41,36.872,88.83,63.949,71.014,92.233A21.339,21.339,0,0,1,38.1,87.3C31.859,74.921,30.349,42.408,50.279,39.59Z" transform="translate(154.736 149.894)" fill="#fdfdfd"/>
    <path id="パス_195" data-name="パス 195" d="M53.18,105.138c10.066-9.462,22.346-17.414,26.473-31.707,1.208-3.926,5.234-3.221,8.556-3.02a9.26,9.26,0,0,1,9.361,6.442,24.359,24.359,0,0,1-5.033,24.359C80.458,113.694,67.473,110.071,53.18,105.138Z" transform="translate(329.092 429.397)" fill="#fdfdfd"/>
    <path id="パス_196" data-name="パス 196" d="M66.92,87.676a25.668,25.668,0,0,1-37.243.805,8.857,8.857,0,0,1-1.51-8.354C29.577,76.7,32.9,76.1,36.522,76a63.011,63.011,0,0,1,30.4,11.676Z" transform="translate(98.234 481.687)" fill="#fdfdfd"/>
    <path id="パス_197" data-name="パス 197" d="M54.67,37.338V34.62l2.516.6Z" transform="translate(342.6 106.549)" fill="#fff"/>
    <path id="パス_198" data-name="パス 198" d="M52.238,85.895a16,16,0,0,1-16.608-9.462c-2.516-5.033-12.884-3.02-10.066-10.066,1.611-3.926,8.355-5.335,12.079-8.656A16.508,16.508,0,0,1,58.881,56.4a19.428,19.428,0,0,1,3.724,2.315c4.832,4.53,15,2.919,15.4,11.676C78.61,75.225,59.988,85.895,52.238,85.895Zm0-8.355c5.939,0,12.582-2.013,11.777-6.643s-8.455-8.254-14.394-9.26c-4.127-.805-9.361,2.516-8.958,5.939A11.676,11.676,0,0,0,52.137,77.54Z" transform="translate(74.366 274.505)"/>
    <path id="パス_199" data-name="パス 199" d="M38.665,66.11c2.919,2.818,8.656-1.007,10.066,4.228a6.733,6.733,0,0,1-1.913,3.624c-4.127,3.624-8.556,1.812-12.481,0-5.637-2.718-12.683-5.737-4.127-13.085,3.724-3.12,2.818-12.985,9.059-10.066S38.061,60.675,38.665,66.11Z" transform="translate(84.718 248.49)"/>
    <path id="パス_200" data-name="パス 200" d="M34.684,65.528c-3.624-1.711-10.066-1.409-9.059-7.247,1.912-8.254,11.274-7.751,17.414-10.67,3.12-1.409,5.335,2.416,4.228,5.637C45.152,59.086,43.944,66.534,34.684,65.528Z" transform="translate(78.331 221.594)"/>
    <path id="パス_201" data-name="パス 201" d="M46.335,57.891c.6,7.348-.6,11.072-4.328,13.488s-5.838,4.53-8.858,1.51-.7-5.637,2.416-7.549,2.516-5.838,1.51-8.656-5.033-6.945.906-8.656c4.429-1.208,6.442,2.818,7.65,6.341a8.153,8.153,0,0,1,.7,3.523Z" transform="translate(134.723 226.11)"/>
    <path id="パス_202" data-name="パス 202" d="M29,58.558c0-5.234,1.309-11.475,5.134-10.871A16.407,16.407,0,0,1,45.608,60.571c1.309,5.033-4.731,6.442-9.26,6.643C29,67.617,30.711,61.275,29,58.558Z" transform="translate(109.884 224.638)"/>
    <path id="パス_203" data-name="パス 203" d="M57.414,36.243c13.387-1.409,23.05,6.241,32.915,13.186,2.315,1.51,3.825,3.926,1.912,6.543s-4.63,1.409-6.845,0a34.827,34.827,0,0,0-40.263-1.309,7.247,7.247,0,0,1-11.274-2.718A8.053,8.053,0,0,1,38.29,40.168a34.021,34.021,0,0,1,19.125-3.926Z" transform="translate(143.675 119.723)"/>
    <path id="パス_204" data-name="パス 204" d="M38.2,70.094A11.676,11.676,0,0,1,26.62,60.029c0-3.422,4.831-6.744,8.958-5.939,5.939,1.007,13.287,3.422,14.394,9.26S44.134,69.893,38.2,70.094Z" transform="translate(88.307 281.951)" fill="#fdfdfd"/>
    <path id="パス_205" data-name="パス 205" d="M45.749,99.233c8.153,1.812,16.709-1.812,24.963,1.912,3.12,1.409,5.737-1.51,7.147-4.026A32.211,32.211,0,0,0,82.69,84.738C83.5,73.767,86.415,65.211,99.1,63.9c18.32-1.812,31,3.724,37.344,16.407A28.888,28.888,0,0,0,169.255,94.8a25.265,25.265,0,0,0,20.131-25.667c0-7.65,2.919-10.066,9.462-11.072,20.131-1.812,40.867-5.637,61.5-6.14,4.63,0,4.328,1.912,4.932,4.932,4.228,18.32-1.309,35.834-3.926,53.549,0,3.926-3.422,8.757,0,11.475s7.952-2.013,11.173-4.63a80.526,80.526,0,0,0,30.2-55.865c2.516-16.91,12.179-23.956,28.587-19.427a7.952,7.952,0,0,1,5.133,5.033,113.843,113.843,0,0,1,10.67,59.086,13.488,13.488,0,0,1-7.348,11.576,81.633,81.633,0,0,1-32.713,12.481c-3.825,0-10.871,3.624-11.475-3.926s2.214-13.287,10.066-13.085a29.191,29.191,0,0,0,21.943-11.173,27.177,27.177,0,0,0-5.737-40.263c-3.724-2.013-7.247-3.12-10.066,1.007s1.51,4.932,4.63,6.341a15.6,15.6,0,0,1,9.361,16.105,21.641,21.641,0,0,1-16.206,18.923c-22.044,6.643-26.976,15.1-21.641,37.646a363.773,363.773,0,0,0,15.2,61.5c8.958,20.937,4.63,41.269,4.731,61.7,0,17.816-11.777,30.2-25.265,40.967a162.763,162.763,0,0,1-57.274,27.781,97.538,97.538,0,0,1-50.328-1.007C151.54,326.013,141.575,308.9,140.367,278V254.748c0-7.751-2.617-10.066-10.67-7.247a74.386,74.386,0,0,1-40.263,2.114,58.884,58.884,0,0,1-39.256-31.2c-7.147-12.18-12.079-26.171-24.862-34.626-3.12-2.013-4.832-6.744,0-9.059,6.241-3.221,4.63-8.556,4.932-13.488a30.2,30.2,0,0,1,13.085-26.171c3.523-2.215,4.429-4.026,2.013-7.952a11.676,11.676,0,0,1,3.02-16.508c5.737-4.832,4.832-7.851-2.617-8.757A16.3,16.3,0,0,1,45.749,99.233ZM77.456,199.89c7.751,0,26.372-10.67,26.07-15.9,0-8.757-10.569-7.147-15.4-11.676a19.427,19.427,0,0,0-3.724-2.315A16.508,16.508,0,0,0,63.163,171.3c-3.724,3.322-10.066,4.731-12.079,8.656-3.12,7.449,7.247,5.435,10.066,10.066a16,16,0,0,0,16.306,9.462Zm-3.221-45.8c-.6-5.435,8.254-12.079.7-15.5s-5.335,7.147-9.059,10.066c-8.556,7.348-1.51,10.066,4.127,13.085,3.926,1.812,8.355,3.624,12.481,0,.906-.906,2.214-2.617,1.912-3.624-1.51-5.435-7.247-1.61-10.166-4.429ZM64.17,126.611c9.26,1.007,10.066-6.442,12.582-12.28,1.107-3.221-1.107-7.046-4.228-5.637-6.14,2.919-15.5,2.416-17.414,10.67C53.5,125,60.244,125,63.868,126.209Zm68.044-3.12a8.153,8.153,0,0,0-.7-3.523c-1.208-3.523-3.221-7.549-7.65-6.341-5.939,1.711-2.114,5.335-.906,8.656s2.315,6.442-1.51,8.656-6.14,4.026-2.416,7.549,6.241,0,8.858-1.51,4.63-6.543,4.026-13.891Zm-42.477-1.208c1.409,3.02,0,9.059,7.348,8.656,4.53,0,10.066-1.611,9.26-6.643A16.407,16.407,0,0,0,94.87,111.412C91.347,110.808,90.542,117.049,89.736,122.283Z" transform="translate(49.147 160.913)" fill="#fff"/>
    <path id="パス_206" data-name="パス 206" d="M307.5,250.409c-29.291,3.12-57.173-9.462-85.458-19.527-32.713-11.676-66.937-20.131-97.234-38.149a325.929,325.929,0,0,1-59.488-43.987,100.655,100.655,0,0,0-20.131-14.193A31.506,31.506,0,0,1,31.3,98.517c1.208-3.624,3.724-2.718,6.039-3.12A30.2,30.2,0,0,0,61,81.2a5.033,5.033,0,0,1,7.046-2.919,216.208,216.208,0,0,0,45.3,8.958,132.472,132.472,0,0,1,20.131,5.939c38.552,11.777,76.4,27.077,115.755,34.123a358.643,358.643,0,0,1,100.154,38.149c16,8.254,22.245,27.882,19.024,47.711A45.4,45.4,0,0,1,334.481,248.6a84.044,84.044,0,0,1-26.976,1.812Z" transform="translate(118.654 497.52)" fill="#fdfdfd"/>
    <path id="パス_207" data-name="パス 207" d="M196.984,140.649c-19.628,10.066-36.035,25.869-54.858,38.149a129.444,129.444,0,0,1-93.41,16.81c-19.024-2.718-33.921-30.2-30.7-51.436,3.02-20.131,10.066-35.029,32.11-41.068A219.934,219.934,0,0,0,84.752,86.9a32.613,32.613,0,0,1,33.015-1.107C145.448,101.7,174.638,115.183,196.984,140.649Z" transform="translate(6.32 534.605)" fill="#fdfdfd"/>
    <path id="パス_208" data-name="パス 208" d="M24.58,100.61c4.832-28.385,20.836-48.416,37.746-67.943a4.228,4.228,0,0,1,6.643-.906c2.818,2.013,2.416,3.624,1.107,6.341a24.359,24.359,0,0,0-2.718,9.462c-.7,10.066-1.711,21.339,8.958,26.573a43.685,43.685,0,0,0,41.37-1.208,97.336,97.336,0,0,0,24.258-22.547A42.175,42.175,0,0,1,194.388,37c4.53,1.61,9.16,3.02,13.589,4.831a23.956,23.956,0,0,1,10.066,39.156c-7.851,8.858-8.757,15.1,1.107,23.453a145.352,145.352,0,0,1,18.924,22.95,4.328,4.328,0,0,1,.7,5.737c-21.239-1.51-42.578,3.624-64.219,4.429a8.657,8.657,0,0,1-10.066-6.744A24.158,24.158,0,0,0,135.2,113.293a24.56,24.56,0,0,0-23.252,25.064c-.805,8.757-3.624,9.059-10.871,7.247a78.209,78.209,0,0,0-34.827,0c-4.127-23.252-10.066-28.385-35.733-28.083-4.228,0-5.536-1.51-5.234-4.932s-2.315-7.046,3.926-6.039a6.241,6.241,0,0,0,4.932-1.51c8.455-9.361,16.91-7.046,25.164,0a7.046,7.046,0,0,0,10.77,0c3.825-4.53-.6-7.046-3.724-10.066C51.757,83,45.114,83.7,24.58,100.61Zm106.7-14.193a34.022,34.022,0,0,0-19.024,3.926,8.053,8.053,0,0,0-4.429,11.777,7.247,7.247,0,0,0,11.274,2.718,34.827,34.827,0,0,1,40.263,1.309c2.214,1.409,4.831,2.818,6.845,0s0-5.033-1.912-6.543C154.327,92.659,144.664,85.512,131.276,86.418Z" transform="translate(69.813 69.548)" fill="#fdfdfd"/>
    <path id="パス_209" data-name="パス 209" d="M39.37,109.07c1.812-4.328,5.838-4.328,8.656-4.932,27.379-6.744,53.046-18.923,81.331-23.05,20.937-3.12,41.37-10.066,62.709-4.026a161.857,161.857,0,0,1,38.048,17.212A128.64,128.64,0,0,0,289.7,112.291c5.335,0,10.569,0,13.287,5.637,1.711,3.624-.6,6.442-3.02,8.757A12.985,12.985,0,0,1,283.865,129,143.029,143.029,0,0,0,242.8,110.781c-8.958-1.912-17.816-4.227-26.674-6.341-3.624-.805-8.254-2.516-9.462,2.214s3.523,5.033,7.247,5.939a357.834,357.834,0,0,1,41.37,11.173c16.608,6.241,32.411,14.495,39.558,32.613.805,2.013,1.711,4.026,2.516,6.14s2.214,5.939-1.107,7.851-4.429-1.611-6.241-3.221a132.164,132.164,0,0,0-36.538-26.473,44.078,44.078,0,0,0-7.046-3.12c-3.724-1.006-9.059-3.221-10.066,1.812s4.63,4.731,7.549,5.838A131.356,131.356,0,0,1,286.281,174.8a13.186,13.186,0,0,1,3.825,15c-11.978-8.355-23.554-16.608-35.23-24.56-2.516-1.711-5.435-4.63-8.958-2.416s.7,5.838,0,9.26a36.942,36.942,0,0,1-18.118-6.643,157.729,157.729,0,0,0-62-17.816,68.749,68.749,0,0,1-21.239-5.435,255.561,255.561,0,0,0-66.333-20.131C63.83,120.243,52.657,112.191,39.37,109.07Z" transform="translate(203.895 469.654)" fill="#fdfdfd"/>
    <path id="パス_210" data-name="パス 210" d="M33.278,136.277l-10.066,4.731c-7.147-36.236,14.9-65.326,48.919-64.924a87.068,87.068,0,0,0-5.637,44.088c.5,5.033,0,5.939-5.133,6.241a46.206,46.206,0,0,0-13.891,2.919A10.066,10.066,0,0,1,36.3,127.62c-2.516-2.315-4.328-7.449-8.556-3.322s0,6.543,2.516,9.361A21.74,21.74,0,0,0,33.278,136.277Z" transform="translate(45.212 482.408)" fill="#fdfdfd"/>
    <path id="パス_211" data-name="パス 211" d="M53.18,105.138c10.066-9.462,22.346-17.414,26.473-31.707,1.208-3.926,5.234-3.221,8.556-3.02a9.26,9.26,0,0,1,9.361,6.442,24.359,24.359,0,0,1-5.033,24.359C80.458,113.694,67.473,110.071,53.18,105.138Z" transform="translate(329.092 429.397)" fill="#fdfdfd"/>
    <path id="パス_212" data-name="パス 212" d="M66.92,87.676a25.668,25.668,0,0,1-37.243.805,8.857,8.857,0,0,1-1.51-8.354C29.577,76.7,32.9,76.1,36.522,76a63.011,63.011,0,0,1,30.4,11.676Z" transform="translate(98.234 481.687)" fill="#fdfdfd"/>
    <path id="パス_213" data-name="パス 213" d="M54.67,37.338V34.62l2.516.6Z" transform="translate(342.6 106.549)" fill="#fff"/>
    <path id="パス_214" data-name="パス 214" d="M52.238,85.895a16,16,0,0,1-16.608-9.462c-2.516-5.033-12.884-3.02-10.066-10.066,1.611-3.926,8.355-5.335,12.079-8.656A16.508,16.508,0,0,1,58.881,56.4a19.428,19.428,0,0,1,3.724,2.315c4.832,4.53,15,2.919,15.4,11.676C78.61,75.225,59.988,85.895,52.238,85.895Zm0-8.355c5.939,0,12.582-2.013,11.777-6.643s-8.455-8.254-14.394-9.26c-4.127-.805-9.361,2.516-8.958,5.939A11.676,11.676,0,0,0,52.137,77.54Z" transform="translate(74.366 274.505)"/>
    <path id="パス_215" data-name="パス 215" d="M38.665,66.11c2.919,2.818,8.656-1.007,10.066,4.228a6.733,6.733,0,0,1-1.913,3.624c-4.127,3.624-8.556,1.812-12.481,0-5.637-2.718-12.683-5.737-4.127-13.085,3.724-3.12,2.818-12.985,9.059-10.066S38.061,60.675,38.665,66.11Z" transform="translate(84.718 248.49)"/>
    <path id="パス_216" data-name="パス 216" d="M34.684,65.528c-3.624-1.711-10.066-1.409-9.059-7.247,1.912-8.254,11.274-7.751,17.414-10.67,3.12-1.409,5.335,2.416,4.228,5.637C45.152,59.086,43.944,66.534,34.684,65.528Z" transform="translate(78.331 221.594)"/>
    <path id="パス_217" data-name="パス 217" d="M46.335,57.891c.6,7.348-.6,11.072-4.328,13.488s-5.838,4.53-8.858,1.51-.7-5.637,2.416-7.549,2.516-5.838,1.51-8.656-5.033-6.945.906-8.656c4.429-1.208,6.442,2.818,7.65,6.341a8.153,8.153,0,0,1,.7,3.523Z" transform="translate(134.723 226.11)"/>
    <path id="パス_218" data-name="パス 218" d="M29,58.558c0-5.234,1.309-11.475,5.134-10.871A16.407,16.407,0,0,1,45.608,60.571c1.309,5.033-4.731,6.442-9.26,6.643C29,67.617,30.711,61.275,29,58.558Z" transform="translate(109.884 224.638)"/>
    <path id="パス_219" data-name="パス 219" d="M57.414,36.243c13.387-1.409,23.05,6.241,32.915,13.186,2.315,1.51,3.825,3.926,1.912,6.543s-4.63,1.409-6.845,0a34.827,34.827,0,0,0-40.263-1.309,7.247,7.247,0,0,1-11.274-2.718A8.053,8.053,0,0,1,38.29,40.168a34.021,34.021,0,0,1,19.125-3.926Z" transform="translate(143.675 119.723)"/>
    <path id="パス_220" data-name="パス 220" d="M38.2,70.094A11.676,11.676,0,0,1,26.62,60.029c0-3.422,4.831-6.744,8.958-5.939,5.939,1.007,13.287,3.422,14.394,9.26S44.134,69.893,38.2,70.094Z" transform="translate(88.307 281.951)" fill="#fdfdfd"/>
    <path id="パス_221" data-name="パス 221" d="M26.653,90.418c-6.241-12.381-4.53-46.906,15.4-50.328,24.359-3.724,25.869,20.131,24.057,38.954s-11.374,22.044-23.554,21.339A17.716,17.716,0,0,1,26.653,90.418Z" transform="translate(59.486 152.616)" fill="#fdfdfd"/>
  </g>
</svg>
