<svg xmlns="http://www.w3.org/2000/svg" width="520" height="640" viewBox="0 0 520 640">
  <g id="typo" transform="translate(0 -0.002)">
    <path id="パス_133" data-name="パス 133" d="M6.57,186.738V7.25H32.257V84.311H63.98V7.25H89.667V187.059H63.98V106.851H32.321v79.886Z" transform="translate(-6.57 -5.784)"/>
    <path id="パス_134" data-name="パス 134" d="M23.3,186.738V7.25H99.911V31.332H48.987V84.054H93.361v24.338H48.987v52.658H99.911v25.687Z" transform="translate(84.564 -5.784)"/>
    <path id="パス_135" data-name="パス 135" d="M37.82,186.738V7.25H63.507V161.372h50.924v25.687Z" transform="translate(163.659 -5.784)"/>
    <path id="パス_136" data-name="パス 136" d="M52.35,186.738V7.25H78.037V161.372h50.924v25.687Z" transform="translate(242.809 -5.784)"/>
    <path id="パス_137" data-name="パス 137" d="M66.653,50.869A46.366,46.366,0,0,1,70.377,31.6,42,42,0,0,1,80.459,17.8,43.026,43.026,0,0,1,94.266,9.77a44.952,44.952,0,0,1,30.953,0,45.4,45.4,0,0,1,14,8.027,42.319,42.319,0,0,1,9.825,13.871,46.364,46.364,0,0,1,3.789,19.265v94.721a45.6,45.6,0,0,1-3.789,19.265,39.493,39.493,0,0,1-9.825,13.357,42.706,42.706,0,0,1-14,8.412,44.952,44.952,0,0,1-30.953,0,40.585,40.585,0,0,1-13.807-8.348,39.3,39.3,0,0,1-10.082-13.357,45.66,45.66,0,0,1-3.725-19.265ZM92.34,145.654A17.21,17.21,0,0,0,97.477,159.4a19.265,19.265,0,0,0,24.467,0,17.018,17.018,0,0,0,5.2-13.742V50.869a17.018,17.018,0,0,0-5.2-13.743,19.265,19.265,0,0,0-24.467,0A17.211,17.211,0,0,0,92.34,50.869Z" transform="translate(320.862 -7.02)"/>
    <path id="パス_138" data-name="パス 138" d="M36.367,222.728V67.386H6.57V43.24H91.787V67.386H62.054V222.728Z" transform="translate(-6.57 187.043)"/>
    <path id="パス_139" data-name="パス 139" d="M21.61,222.728V43.24H47.3V120.3H79.085V43.24h25.687V222.728H79.085V142.777H47.3v79.951Z" transform="translate(75.364 187.043)"/>
    <path id="パス_140" data-name="パス 140" d="M38.45,222.728V43.24H64.137V222.728Z" transform="translate(167.007 187.043)"/>
    <path id="パス_141" data-name="パス 141" d="M133.8,96.459H108.111V90.615a27.549,27.549,0,0,0-4.174-15.284,15.412,15.412,0,0,0-14-6.422,15.284,15.284,0,0,0-13.871,7A20.806,20.806,0,0,0,73.3,83.359a48.548,48.548,0,0,0-.771,8.734,70.559,70.559,0,0,0,.321,8.8,17.21,17.21,0,0,0,1.927,6.422,14.321,14.321,0,0,0,4.431,4.816,39.366,39.366,0,0,0,7.963,4.046l19.651,7.77A49.382,49.382,0,0,1,120.7,131.65a33.971,33.971,0,0,1,8.284,10.211A48.419,48.419,0,0,1,132.77,155.6a141.663,141.663,0,0,1,1.027,17.531,90.869,90.869,0,0,1-2.312,21.063,43.154,43.154,0,0,1-7.321,16.5,36.411,36.411,0,0,1-13.807,11.11,50.09,50.09,0,0,1-20.935,3.982,45.659,45.659,0,0,1-17.4-3.275,41.228,41.228,0,0,1-13.871-9.055,43.667,43.667,0,0,1-9.183-13.486,40.328,40.328,0,0,1-3.4-16.761v-9.633H71.25v8.027a21.128,21.128,0,0,0,4.174,12.844,16.375,16.375,0,0,0,14,5.651,22.219,22.219,0,0,0,10.211-1.927,13.422,13.422,0,0,0,5.651-5.394,19.587,19.587,0,0,0,2.376-8.284q.385-4.945.385-10.981a97.353,97.353,0,0,0-.514-11.623,19.266,19.266,0,0,0-1.991-7.321,14.319,14.319,0,0,0-4.688-4.5,61.768,61.768,0,0,0-7.513-4.11l-18.366-7.578A40.392,40.392,0,0,1,52.5,120.284a61.649,61.649,0,0,1-5.715-28.063,63.126,63.126,0,0,1,2.825-19.265,42.319,42.319,0,0,1,8.284-15.6A38.53,38.53,0,0,1,71.378,46.883a45.4,45.4,0,0,1,19.265-3.917A42.127,42.127,0,0,1,108.175,46.5a44.953,44.953,0,0,1,14,9.568A39.172,39.172,0,0,1,133.8,83.808Z" transform="translate(205.846 185.52)"/>
    <path id="パス_142" data-name="パス 142" d="M66.43,222.728V43.24H92.117V222.728Z" transform="translate(319.349 187.043)"/>
    <path id="パス_143" data-name="パス 143" d="M161.766,96.459H136.079V90.615A27.549,27.549,0,0,0,131.9,75.332a15.348,15.348,0,0,0-14-6.422,15.991,15.991,0,0,0-8.541,1.991,17.339,17.339,0,0,0-5.33,5.009,22.025,22.025,0,0,0-2.761,7.449,48.542,48.542,0,0,0-.771,8.734,82.6,82.6,0,0,0,.385,8.926,16.055,16.055,0,0,0,1.927,6.422,13.679,13.679,0,0,0,4.431,4.816,40.393,40.393,0,0,0,7.9,4.046l19.651,7.77a48.484,48.484,0,0,1,13.871,7.706,34.165,34.165,0,0,1,8.348,10.211,50.607,50.607,0,0,1,3.789,13.743,142.634,142.634,0,0,1,.963,17.531,90.932,90.932,0,0,1-2.248,21.063,43.155,43.155,0,0,1-7.321,16.5,36.6,36.6,0,0,1-13.871,11.11,49.9,49.9,0,0,1-20.935,3.981,46.107,46.107,0,0,1-17.4-3.275,42.511,42.511,0,0,1-13.871-9.055,44.952,44.952,0,0,1-9.183-13.486,41.355,41.355,0,0,1-3.4-16.761v-9.761H99.218v8.027a21.064,21.064,0,0,0,4.11,12.844,16.44,16.44,0,0,0,14,5.651,22.218,22.218,0,0,0,10.211-1.927,13.228,13.228,0,0,0,5.715-5.394,19.585,19.585,0,0,0,2.44-8.284q.385-4.945.385-10.981a113.13,113.13,0,0,0-.514-11.623,20.806,20.806,0,0,0-1.991-7.321,14.963,14.963,0,0,0-4.688-4.5,61.784,61.784,0,0,0-7.385-4.11l-18.366-7.578a40.778,40.778,0,0,1-22.669-18.109,61.712,61.712,0,0,1-5.651-28.063,65.182,65.182,0,0,1,2.761-19.265,43.41,43.41,0,0,1,8.348-15.6A38.53,38.53,0,0,1,99.411,46.883a45.4,45.4,0,0,1,19.265-3.917A42.576,42.576,0,0,1,136.207,46.5a46.751,46.751,0,0,1,14,9.568,39.108,39.108,0,0,1,11.559,27.742Z" transform="translate(358.229 185.519)"/>
    <path id="パス_144" data-name="パス 144" d="M41.89,258.708V182.867L6.57,79.22H33.8l20.485,71.346H54.8L75.475,79.22H102.7L67.384,182.867v75.841Z" transform="translate(-6.57 379.816)"/>
    <path id="パス_145" data-name="パス 145" d="M106.96,79.22V218.379A41.87,41.87,0,0,1,81.273,256.91a39.942,39.942,0,0,1-16.119,3.275,39.108,39.108,0,0,1-15.99-3.275,43.989,43.989,0,0,1-22.348-22.283,40.2,40.2,0,0,1-3.275-16.311V79.22H49.229V215.875A19.265,19.265,0,0,0,53.724,230a16.44,16.44,0,0,0,22.733,0,19.265,19.265,0,0,0,4.5-14.128V79.22Z" transform="translate(85.876 379.816)"/>
    <path id="パス_146" data-name="パス 146" d="M40.3,258.816V79.328H64.959l33.072,94.913h.45L131.3,79.2h24.916V259.009H130.525V149.839h-.514L104.325,226.9H91.481L66.244,149.839h-.257v109.17Z" transform="translate(177.253 379.708)"/>
    <path id="パス_147" data-name="パス 147" d="M60.32,258.708,100.392,79.22H121.84l40.072,179.809H136.225l-7.513-38.53H93.585l-7.578,38.53Zm63.511-62.74-12.843-65.052h-.514L97.63,195.967Z" transform="translate(286.609 379.816)"/>
  </g>
</svg>
